<svg xmlns="http://www.w3.org/2000/svg" viewBox="0 0 840 423.02"><path fill="#1e9bd7" fill-rule="evenodd" d="M230.8 401.21h10.03v10.8H230.8z"/><path fill="#ffbf27" fill-rule="evenodd" d="M398.51 401.21h10.02v10.8h-10.02z"/><path fill="none" stroke="#c4c4c4" stroke-width=".5" d="M110.02 286.37h713.74m-713.74-57.91h713.74m-713.74-58.05h713.74m-713.74-57.92h713.74M110.02 54.58h713.74"/><path fill="#1e9bd7" d="M114.92 337.95h15.87v5.41h-15.87zm28.56-.54h15.87v5.95h-15.87zm28.57-1.34h15.87v7.29h-15.87zm28.56-.95h15.87v8.24h-15.87zm28.57-1.48h15.87v9.72h-15.87zm28.56-1.9h15.87v11.62h-15.87zm28.57-4.72h15.87v16.34h-15.87zm28.56-7.97h15.75v24.31h-15.75zm28.44-6.07h15.87v30.38h-15.87zm28.57-5.94h15.87v36.32h-15.87zm28.56-5.13h15.87v41.45h-15.87zm28.57-.54h15.87v41.99h-15.87zm28.56-3.65h15.87v45.64h-15.87zm28.57-4.18h15.87v49.82h-15.87zm28.56-2.97h15.87v52.79H514.7zm28.57-7.96h15.74v60.75h-15.74zm28.44-10h15.87v70.75h-15.87zm28.56-9.85h15.87v80.6h-15.87zm28.57-12.15h15.87v92.75h-15.87zM657.4 239h15.87v104.36H657.4zm28.57-22.41h15.87v126.77h-15.87zm28.56-29.43h15.87v156.2h-15.87zm28.57-12.96h15.87v169.16H743.1zm28.43-18.9h15.87v188.06h-15.87zm28.57 4.05h15.87v184.01H800.1z"/><path fill="none" stroke="#fff" stroke-linejoin="round" d="M57.85 338.95h15.87v5.4H57.85zm28.57-.54h15.87v5.94H86.42zm28.56-1.34h15.87v7.29h-15.87zm28.57-.95h15.87v8.24h-15.87zm28.56-1.48h15.87v9.72h-15.87zm28.57-1.9h15.87v11.61h-15.87zm28.56-4.72h15.87v16.34h-15.87zm28.57-7.97h15.74v24.3h-15.74zm28.44-6.07h15.87v30.38h-15.87zm28.56-5.94h15.87v36.32h-15.87zm28.57-5.13h15.87v41.45h-15.87zm28.56-.54h15.87v41.99h-15.87zm28.57-3.65h15.87v45.63h-15.87zm28.56-4.18h15.87v49.82h-15.87zm28.57-2.97h15.87v52.78h-15.87zm28.56-7.96h15.74v60.75H486.2zm28.44-10h15.87v70.74h-15.87zm28.56-9.85h15.87v80.59H543.2zm28.57-12.15h15.87v92.74h-15.87zM600.33 240h15.87v104.36h-15.87zm28.57-22.41h15.87v126.76H628.9zm28.56-29.43h15.87v156.2h-15.87zm28.57-12.96h15.87v169.16h-15.87zm28.44-18.9h15.87v188.05h-15.87zm28.56 4.05h15.87v184.01h-15.87z"/><path fill="none" stroke="#fff" stroke-linejoin="round" d="M114.92 338.55h15.87v.4h-15.87zm28.56-.67h15.87v.54h-15.87zm28.57-1.49h15.87v.68h-15.87zm28.56-.94h15.87v.67h-15.87zm28.57-2.17h15.87v1.35h-15.87zm28.56-2.15h15.87v1.62h-15.87zm28.57-5.14h15.87v2.03h-15.87zm28.56-8.5h15.74v2.57h-15.74zm28.44-7.42h15.87v3.91h-15.87zm28.57-6.21h15.87v4.18h-15.87zm28.56-6.48h15.87v5.53h-15.87zm28.57-2.57h15.87v7.56h-15.87zm28.56-5.53h15.87v9.45h-15.87zm28.57-7.83h15.87v13.09h-15.87zm28.56-7.16h15.87v17.28H514.7zm28.57-9.45h15.74v18.76h-15.74zm28.44-14.58h15.87v23.35h-15.87zm28.56-14.04h15.87v27.54h-15.87zm28.57-16.07h15.87v31.46h-15.87zm28.56-16.06h15.87V240H657.4zm28.57-26.6h15.87v40.1h-15.87zm28.56-35.09h15.87v45.76h-15.87zm28.57-14.04h15.87v46.84H743.1zm28.43-21.47h15.87v49.41h-15.87zm28.57 4.05h15.87v49.41H800.1z"/><path fill="#ffbf27" d="M114.92 338.55h15.87v.4h-15.87zm28.56-.67h15.87v.54h-15.87zm28.57-1.49h15.87v.68h-15.87zm28.56-.94h15.87v.67h-15.87zm28.57-2.17h15.87v1.35h-15.87zm28.56-2.15h15.87v1.62h-15.87zm28.57-5.14h15.87v2.03h-15.87zm28.56-8.5h15.74v2.57h-15.74zm28.44-7.42h15.87v3.91h-15.87zm28.57-6.21h15.87v4.18h-15.87zm28.56-6.48h15.87v5.53h-15.87zm28.57-2.57h15.87v7.56h-15.87zm28.56-5.53h15.87v9.45h-15.87zm28.57-7.83h15.87v13.09h-15.87zm28.56-7.16h15.87v17.28H514.7zm28.57-9.45h15.74v18.76h-15.74zm28.44-14.58h15.87v23.35h-15.87zm28.56-14.04h15.87v27.54h-15.87zm28.57-16.07h15.87v31.46h-15.87zm28.56-16.06h15.87V240H657.4zm28.57-26.6h15.87v40.1h-15.87zm28.56-35.09h15.87v45.76h-15.87zm28.57-14.04h15.87v46.84H743.1zm28.43-21.47h15.87v49.41h-15.87zm28.57 4.05h15.87v49.41H800.1z"/><path fill="none" stroke="#000" stroke-linecap="round" stroke-linejoin="round" d="M392.8 279.62h31.16v93.51H392.8zm15.58-.29v-25.38"/><path fill="#fff" stroke="#8c8c8c" stroke-width="1.5" d="M319.61 152.31h177.53V259H319.61z"/><path d="M222 15.39v3.94h-2.42V8.45h4.16c1.18 0 1.97.13 2.54.35 1.25.5 2.07 1.57 2.07 3.15 0 1.38-.51 2.24-1.52 2.85-.88.51-1.89.59-3.22.59h-1.62Zm0-4.84v2.71h1.9c.53 0 .98-.03 1.31-.19.46-.19.7-.53.7-1.15 0-.67-.26-1.01-.72-1.2-.34-.13-.78-.16-1.31-.16h-1.89Zm9.87 1.16v1.04c.21-.58 1.07-1.22 2.15-1.22.1 0 .18 0 .27.02v2.24c-.26-.06-.54-.1-.75-.1-.9 0-1.34.43-1.52 1.07-.08.29-.11.64-.11 1.02v3.54h-2.34V11.7h2.3Zm5.94-.98h-2.35V8.44h2.35zm0 8.6h-2.35v-7.62h2.35zm8.81-7.62-2.5 7.62h-2.79l-2.46-7.62h2.45l1.04 3.83c.22.8.42 1.7.42 1.7h.02s.18-.9.4-1.75l1.01-3.78h2.42Zm7.41 5.71c0 .48.06.64.4.64h.11v1.34c-.34.06-.67.1-1.09.1-.67 0-1.3-.13-1.46-.69h-.02c-.35.37-.99.7-2.15.7-1.68 0-2.75-.88-2.75-2.43 0-.83.35-1.38.96-1.74.46-.27.98-.43 1.87-.58l1.47-.24c.42-.06.48-.11.48-.35v-.13c0-.58-.32-.9-1.12-.9s-1.26.34-1.26 1.1l-2.16-.02c-.03-1.76 1.33-2.69 3.52-2.69 1.95 0 3.19.61 3.19 2.34v3.54Zm-2.17-1.55c-.16.06-.35.13-.85.24l-.53.11c-.3.06-.56.13-.75.26-.21.13-.32.34-.32.62 0 .62.46.9 1.14.9.77 0 1.31-.35 1.31-1.15zm8.79 3.49c-.32.06-.85.13-1.41.13-.91 0-1.87-.13-2.27-.66-.29-.38-.32-.8-.32-1.57v-3.97h-1.47v-1.58h1.47V9.12l2.34-.46v3.06h1.67v1.58h-1.67v3.38c0 .43.05.64.19.78.16.18.45.24.88.24.27 0 .48-.02.59-.03v1.7Zm8.44-1.65c-.45.64-1.55 1.81-3.65 1.81-2.24 0-3.95-1.47-3.95-4.03 0-2.38 1.63-3.97 3.91-3.97 2.51 0 3.79 1.81 3.79 4.13 0 .16 0 .34-.02.48h-5.43c.08.83.69 1.55 1.84 1.55 1.02 0 1.63-.61 1.89-1.06zm-5.35-3.09h3.18c-.05-.88-.61-1.49-1.55-1.49s-1.6.69-1.63 1.49m19.37 2.32c-.82 1.6-2.22 2.58-4.42 2.58-3.25 0-5.2-2.31-5.2-5.63s2.05-5.63 5.2-5.63c2.42 0 3.84 1.31 4.5 2.79l-2.02.85c-.45-1.07-1.26-1.65-2.45-1.65-1.79 0-2.82 1.38-2.82 3.65s.99 3.6 2.82 3.6c1.15 0 1.95-.51 2.4-1.49l1.98.94Zm3.55-5.23v1.04c.21-.58 1.07-1.22 2.15-1.22.1 0 .18 0 .27.02v2.24c-.26-.06-.54-.1-.75-.1-.9 0-1.34.43-1.52 1.07-.08.29-.11.64-.11 1.02v3.54h-2.34V11.7h2.3Zm10.88 6c-.45.64-1.55 1.81-3.65 1.81-2.24 0-3.95-1.47-3.95-4.03 0-2.38 1.63-3.97 3.91-3.97 2.51 0 3.79 1.81 3.79 4.13 0 .16 0 .34-.02.48h-5.43c.08.83.69 1.55 1.84 1.55 1.02 0 1.63-.61 1.89-1.06zm-5.34-3.09h3.18c-.05-.88-.61-1.49-1.55-1.49s-1.6.69-1.63 1.49m12.25-2.23V8.44h2.34v10.88h-2.34v-.7c-.37.42-1.18.9-2.24.9-2.16 0-3.54-1.6-3.54-4s1.42-4 3.55-4c1.1 0 1.84.42 2.22.88Zm-1.68.9c-1.09 0-1.73.86-1.73 2.22s.59 2.24 1.73 2.24c1.04 0 1.75-.91 1.75-2.24s-.71-2.22-1.75-2.22m8.24-2.56h-2.35V8.44h2.35zm0 8.6h-2.35v-7.62h2.35zm6.56.03c-.32.06-.85.13-1.41.13-.91 0-1.87-.13-2.27-.66-.29-.38-.32-.8-.32-1.57v-3.97h-1.47v-1.58h1.47V9.12l2.34-.46v3.06h1.66v1.58h-1.66v3.38c0 .43.05.64.19.78.16.18.45.24.88.24.27 0 .48-.02.59-.03v1.7Zm6.29-.03h-2.54l3.67-10.88h2.93l3.63 10.88h-2.59l-.64-2.16h-3.83l-.62 2.16Zm2.93-7.22c-.19-.69-.37-1.41-.37-1.41h-.02s-.19.72-.4 1.42l-.93 3.06h2.61l-.9-3.07Zm10.91 1.92c-.56-.51-1.31-.83-2.06-.83-.53 0-.99.18-.99.56s.35.51 1.14.67l1.2.26c1.23.26 2.35.75 2.35 2.21 0 1.78-1.55 2.62-3.36 2.62s-3.22-.77-3.91-1.71l1.47-1.18c.46.64 1.38 1.17 2.43 1.17.78 0 1.18-.26 1.18-.67s-.46-.51-.98-.61l-1.2-.24c-.77-.14-1.42-.4-1.89-.8-.42-.35-.66-.85-.66-1.49 0-1.81 1.74-2.47 3.25-2.47 1.42 0 2.56.53 3.33 1.26l-1.31 1.25Zm8.1 0c-.56-.51-1.31-.83-2.06-.83-.53 0-.99.18-.99.56s.35.51 1.14.67l1.2.26c1.23.26 2.35.75 2.35 2.21 0 1.78-1.55 2.62-3.36 2.62s-3.22-.77-3.91-1.71l1.47-1.18c.46.64 1.38 1.17 2.43 1.17.78 0 1.18-.26 1.18-.67s-.46-.51-.98-.61l-1.2-.24c-.77-.14-1.42-.4-1.89-.8-.42-.35-.66-.85-.66-1.49 0-1.81 1.74-2.47 3.25-2.47 1.42 0 2.56.53 3.33 1.26l-1.31 1.25Zm10.21 3.68c-.45.64-1.55 1.81-3.65 1.81-2.24 0-3.95-1.47-3.95-4.03 0-2.38 1.63-3.97 3.91-3.97 2.51 0 3.79 1.81 3.79 4.13 0 .16 0 .34-.02.48h-5.43c.08.83.69 1.55 1.84 1.55 1.02 0 1.63-.61 1.89-1.06zm-5.35-3.09h3.19c-.05-.88-.61-1.49-1.55-1.49s-1.6.69-1.63 1.49Zm11.59 4.74c-.32.06-.85.13-1.41.13-.91 0-1.87-.13-2.27-.66-.29-.38-.32-.8-.32-1.57v-3.97h-1.47v-1.58h1.47V9.12l2.34-.46v3.06h1.66v1.58h-1.66v3.38c0 .43.05.64.19.78.16.18.45.24.88.24.27 0 .48-.02.59-.03v1.7Zm6.55-5.33c-.56-.51-1.31-.83-2.06-.83-.53 0-.99.18-.99.56s.35.51 1.14.67l1.2.26c1.23.26 2.35.75 2.35 2.21 0 1.78-1.55 2.62-3.36 2.62s-3.22-.77-3.91-1.71l1.47-1.18c.46.64 1.38 1.17 2.43 1.17.78 0 1.18-.26 1.18-.67s-.46-.51-.98-.61l-1.2-.24c-.77-.14-1.42-.4-1.89-.8-.42-.35-.66-.85-.66-1.49 0-1.81 1.74-2.47 3.25-2.47 1.42 0 2.56.53 3.33 1.26l-1.31 1.25Zm15.06.86c0 1.6-.14 2.29-.56 2.99-.69 1.22-2.18 1.63-3.81 1.63s-3.12-.42-3.81-1.63c-.42-.7-.56-1.39-.56-2.99V8.44h2.42v6.4c0 .98.06 1.3.21 1.68.27.62.86.91 1.75.91s1.49-.29 1.76-.91c.14-.32.19-.67.19-1.68v-6.4h2.42v6.45Zm9.25 4.44h-2.34v-3.84c0-1.17-.05-1.98-1.2-1.98-.98 0-1.39.77-1.39 1.81v4.02h-2.34v-7.62h2.3v.94c.37-.62 1.2-1.14 2.29-1.14.88 0 1.55.24 2 .74.48.54.67 1.07.67 2.75v4.32Zm7.2-6.94V8.44h2.34v10.88h-2.34v-.7c-.37.42-1.18.9-2.24.9-2.16 0-3.54-1.6-3.54-4s1.42-4 3.55-4c1.1 0 1.84.42 2.22.88Zm-1.68.9c-1.09 0-1.73.86-1.73 2.22s.59 2.24 1.73 2.24c1.04 0 1.75-.91 1.75-2.24s-.71-2.22-1.75-2.22m13.1 4.42c-.45.64-1.55 1.81-3.65 1.81-2.24 0-3.95-1.47-3.95-4.03 0-2.38 1.63-3.97 3.91-3.97 2.51 0 3.79 1.81 3.79 4.13 0 .16 0 .34-.02.48h-5.43c.08.83.69 1.55 1.84 1.55 1.02 0 1.63-.61 1.89-1.06zm-5.35-3.09h3.18c-.05-.88-.61-1.49-1.55-1.49s-1.6.69-1.63 1.49m9.2-2.91v1.04c.21-.58 1.07-1.22 2.15-1.22.1 0 .18 0 .27.02v2.24c-.26-.06-.54-.1-.75-.1-.9 0-1.34.43-1.52 1.07-.08.29-.11.64-.11 1.02v3.54h-2.34V11.7h2.3Zm11.48 7.62-1.6-6.37c-.24-.96-.54-2.35-.58-2.48.03.59.14 3.84.14 5.3v3.55h-2.3V8.45h3.6l1.41 5.39c.32 1.18.58 2.64.58 2.64h.02s.26-1.46.59-2.64l1.49-5.39h3.46v10.88h-2.31v-3.52c0-1.54.16-4.63.21-5.3-.03.11-.35 1.71-.66 2.75l-1.74 6.07h-2.3Zm15.45-1.91c0 .48.06.64.4.64h.11v1.34c-.34.06-.67.1-1.09.1-.67 0-1.3-.13-1.46-.69h-.02c-.35.37-.99.7-2.14.7-1.68 0-2.75-.88-2.75-2.43 0-.83.35-1.38.96-1.74.46-.27.98-.43 1.87-.58l1.47-.24c.42-.06.48-.11.48-.35v-.13c0-.58-.32-.9-1.12-.9s-1.26.34-1.26 1.1l-2.16-.02c-.03-1.76 1.33-2.69 3.52-2.69 1.95 0 3.19.61 3.19 2.34v3.54Zm-2.18-1.55c-.16.06-.35.13-.85.24l-.53.11c-.3.06-.56.13-.75.26-.21.13-.32.34-.32.62 0 .62.46.9 1.14.9.77 0 1.31-.35 1.31-1.15zm11.44 3.46h-2.34v-3.84c0-1.17-.05-1.98-1.2-1.98-.98 0-1.39.77-1.39 1.81v4.02h-2.34v-7.62h2.31v.94c.37-.62 1.2-1.14 2.29-1.14.88 0 1.55.24 2 .74.48.54.67 1.07.67 2.75zm8.37-1.91c0 .48.06.64.4.64h.11v1.34c-.34.06-.67.1-1.09.1-.67 0-1.3-.13-1.46-.69h-.02c-.35.37-.99.7-2.15.7-1.68 0-2.75-.88-2.75-2.43 0-.83.35-1.38.96-1.74.46-.27.98-.43 1.87-.58l1.47-.24c.42-.06.48-.11.48-.35v-.13c0-.58-.32-.9-1.12-.9s-1.26.34-1.26 1.1l-2.16-.02c-.03-1.76 1.33-2.69 3.52-2.69 1.95 0 3.19.61 3.19 2.34v3.54Zm-2.18-1.55c-.16.06-.35.13-.85.24l-.53.11c-.3.06-.56.13-.75.26-.21.13-.32.34-.32.62 0 .62.46.9 1.14.9.77 0 1.31-.35 1.31-1.15zm6.03 3.58c.13.67.5 1.2 1.67 1.2 1.25 0 1.71-.53 1.71-1.71v-.54c-.27.32-.99.83-2.26.83-2.11 0-3.49-1.58-3.49-3.87 0-2.13 1.46-3.84 3.52-3.84 1.01 0 1.81.37 2.24.85v-.66h2.34v6.83c0 2.74-1.09 3.86-4.11 3.86-2.74 0-3.67-1.23-3.79-2.79l2.18-.16Zm1.69-6.16c-1.04 0-1.71.83-1.71 2.1s.62 2.11 1.71 2.11c1.01 0 1.75-.85 1.75-2.11s-.75-2.1-1.75-2.1m13.11 4.42c-.45.64-1.55 1.81-3.65 1.81-2.24 0-3.95-1.47-3.95-4.03 0-2.38 1.63-3.97 3.91-3.97 2.51 0 3.79 1.81 3.79 4.13 0 .16 0 .34-.02.48h-5.43c.08.83.69 1.55 1.84 1.55 1.02 0 1.63-.61 1.89-1.06zm-5.34-3.09h3.19c-.05-.88-.61-1.49-1.55-1.49s-1.6.69-1.63 1.49Zm14.05 4.71h-2.34v-3.84c0-1.17-.02-1.98-1.17-1.98-.95 0-1.31.77-1.31 1.81v4.02h-2.34v-7.62h2.31v.94c.37-.62 1.17-1.14 2.22-1.14q1.77 0 2.37 1.38c.35-.66 1.23-1.38 2.45-1.38.88 0 1.5.24 1.95.74.48.54.67 1.07.67 2.75v4.32h-2.34v-3.84c0-1.17 0-1.98-1.15-1.98-.96 0-1.33.77-1.33 1.81v4.02Zm13.82-1.62c-.45.64-1.55 1.81-3.65 1.81-2.24 0-3.95-1.47-3.95-4.03 0-2.38 1.63-3.97 3.91-3.97 2.51 0 3.79 1.81 3.79 4.13 0 .16 0 .34-.02.48h-5.43c.08.83.69 1.55 1.84 1.55 1.02 0 1.63-.61 1.89-1.06zm-5.35-3.09h3.19c-.05-.88-.61-1.49-1.55-1.49s-1.6.69-1.63 1.49Zm14.17 4.71h-2.34v-3.84c0-1.17-.05-1.98-1.2-1.98-.98 0-1.39.77-1.39 1.81v4.02h-2.34v-7.62h2.31v.94c.37-.62 1.2-1.14 2.29-1.14.88 0 1.55.24 2 .74.48.54.67 1.07.67 2.75zm6.49.03c-.32.06-.85.13-1.41.13-.91 0-1.87-.13-2.27-.66-.29-.38-.32-.8-.32-1.57v-3.97h-1.47v-1.58h1.47V9.12l2.34-.46v3.06h1.67v1.58h-1.67v3.38c0 .43.05.64.19.78.16.18.45.24.88.24.27 0 .48-.02.59-.03v1.7Zm8.4-10.92c-1.23 2.19-1.83 4.43-1.83 6.64s.58 4.47 1.79 6.77h-2.08c-1.41-2.23-2-4.34-2-6.58s.64-4.5 2.02-6.83zm9.95 6.45c0 1.6-.14 2.29-.56 2.99-.69 1.22-2.18 1.63-3.81 1.63s-3.12-.42-3.81-1.63c-.42-.7-.56-1.39-.56-2.99V8.44h2.42v6.4c0 .98.06 1.3.21 1.68.27.62.86.91 1.75.91s1.49-.29 1.76-.91c.14-.32.19-.67.19-1.68v-6.4h2.42v6.45Zm8.77-3.46c-.75-.72-1.73-1.18-2.82-1.18-1.01 0-1.71.42-1.71 1.1s.5.99 1.49 1.18l1.76.35c2.02.4 3.28 1.2 3.28 3.12 0 2.26-2 3.51-4.58 3.51s-4.24-1.34-4.91-2.27l1.68-1.44c.67.9 1.79 1.7 3.3 1.7 1.26 0 2-.5 2-1.3 0-.75-.64-.96-1.63-1.14l-1.41-.27c-1.99-.38-3.49-1.1-3.49-3.23 0-1.95 1.81-3.31 4.19-3.31 1.92 0 3.46.72 4.39 1.71zm3.58 7.9V8.45h4c.98 0 2 .05 2.9.5 1.68.82 2.5 2.77 2.5 4.91 0 1.87-.61 3.36-1.62 4.34-1.15 1.14-2.46 1.14-4.48 1.14h-3.3Zm2.4-2.26h1.1c1.1 0 1.99-.02 2.53-.56.46-.46.86-1.38.86-2.59 0-1.15-.37-2.1-.98-2.62-.56-.48-1.33-.56-2.59-.56h-.93v6.34Zm16.34 2.26-1.6-6.37c-.24-.96-.54-2.35-.58-2.48.03.59.14 3.84.14 5.3v3.55h-2.3V8.45h3.6l1.41 5.39c.32 1.18.58 2.64.58 2.64h.02s.26-1.46.59-2.64l1.49-5.39h3.46v10.88h-2.3v-3.52c0-1.54.16-4.63.21-5.3-.03.11-.35 1.71-.66 2.75l-1.74 6.07h-2.31Zm11.24-8.6h-2.35V8.44h2.35zm0 8.6h-2.35v-7.62h2.35zm4.22 0h-2.34V8.45h2.34zm4.25 0h-2.34V8.45h2.34zm4.24-8.6h-2.35V8.44h2.35zm0 8.6h-2.35v-7.62h2.35zm5.51-7.82c2.4 0 4.05 1.46 4.05 4.03s-1.65 3.97-4.05 3.97-4.03-1.39-4.03-3.97 1.63-4.03 4.03-4.03m0 6.23c1.07 0 1.68-.83 1.68-2.22s-.59-2.24-1.68-2.24-1.67.83-1.67 2.24.59 2.22 1.67 2.22m12.8 1.59h-2.34v-3.84c0-1.17-.05-1.98-1.2-1.98-.98 0-1.39.77-1.39 1.81v4.02h-2.34v-7.62h2.31v.94c.37-.62 1.2-1.14 2.29-1.14.88 0 1.55.24 2 .74.48.54.67 1.07.67 2.75zm6.78-5.3c-.56-.51-1.31-.83-2.06-.83-.53 0-.99.18-.99.56s.35.51 1.14.67l1.2.26c1.23.26 2.35.75 2.35 2.21 0 1.78-1.55 2.62-3.36 2.62s-3.22-.77-3.91-1.71l1.47-1.18c.46.64 1.38 1.17 2.43 1.17.78 0 1.18-.26 1.18-.67s-.46-.51-.98-.61l-1.2-.24c-.77-.14-1.42-.4-1.89-.8-.42-.35-.66-.85-.66-1.49 0-1.81 1.75-2.47 3.25-2.47 1.42 0 2.56.53 3.33 1.26l-1.31 1.25Zm3.87-5.59c1.38 2.34 2.02 4.53 2.02 6.83s-.59 4.35-2 6.58h-2.08c1.22-2.31 1.79-4.64 1.79-6.77s-.59-4.45-1.82-6.64h2.1Z"/><path fill="#262626" d="M255.95 404.81c-.5-1.23-1.49-2.31-3.15-2.31-2.19 0-3.55 1.92-3.55 4.74s1.36 4.74 3.55 4.74c1.76 0 2.74-1.09 3.19-2.34l.9.48c-.56 1.28-1.67 2.75-4.08 2.75-2.95 0-4.61-2.21-4.61-5.63s1.74-5.63 4.61-5.63c2.29 0 3.49 1.34 4.03 2.62l-.88.58Zm5.58.08c2.14 0 3.46 1.6 3.46 4.02s-1.3 3.97-3.46 3.97-3.46-1.57-3.46-3.97 1.31-4.02 3.46-4.02m0 7.17c1.47 0 2.46-1.2 2.46-3.17s-.96-3.2-2.46-3.2-2.46 1.22-2.46 3.2.99 3.17 2.46 3.17m9.02-6.19c-.18-.03-.35-.05-.53-.05-1.33 0-2.29 1.02-2.29 2.56v4.31h-.94v-7.62h.94v1.47c.27-.9 1.15-1.66 2.3-1.66.18 0 .34.02.51.05v.94Zm2.35 5.46v4.4h-.94v-10.66h.94v1.36c.37-.85 1.26-1.54 2.48-1.54 1.92 0 3.22 1.46 3.22 4.02s-1.3 3.97-3.19 3.97c-1.28 0-2.14-.69-2.51-1.55m2.34.73c1.5 0 2.37-1.15 2.37-3.19s-.93-3.17-2.4-3.17-2.34 1.1-2.34 3.19.91 3.17 2.37 3.17m8.18-7.17c2.14 0 3.46 1.6 3.46 4.02s-1.3 3.97-3.46 3.97-3.46-1.57-3.46-3.97 1.31-4.02 3.46-4.02m0 7.17c1.47 0 2.46-1.2 2.46-3.17s-.96-3.2-2.46-3.2-2.46 1.22-2.46 3.2.99 3.17 2.46 3.17m9.02-6.19c-.18-.03-.35-.05-.53-.05-1.33 0-2.29 1.02-2.29 2.56v4.31h-.94v-7.62h.94v1.47c.27-.9 1.15-1.66 2.3-1.66.18 0 .34.02.51.05v.94Zm1.18 1.41c-.03-1.5 1.22-2.38 2.88-2.38 1.57 0 2.71.48 2.71 2.4v3.79c0 .62.05.99.61.99.26 0 .5-.1.58-.14v.74c-.18.1-.46.18-.82.18-.74 0-1.28-.4-1.25-1.23h-.02c-.27.59-1.1 1.26-2.46 1.26-1.5 0-2.43-.9-2.43-2.3 0-.66.21-1.15.58-1.49.5-.45 1.26-.66 2.19-.83l1.75-.32c.27-.05.38-.08.38-.42v-.24c0-1.06-.5-1.6-1.86-1.6-1.28 0-1.95.67-1.95 1.81l-.88-.21Zm4.69 1.31c-.14.05-.35.11-.96.22l-.94.18c-.53.1-1.01.21-1.36.4-.38.22-.64.56-.64 1.17 0 1.01.69 1.52 1.66 1.52 1.25 0 2.24-.82 2.24-2.08zm2.42-3.52h1.54v-2.85l.94-.21v3.06h1.82v.74h-1.82v5.15c0 .38.02.66.14.83.11.14.29.21.59.21.46 0 .88-.14 1.09-.26v.85c-.27.13-.72.26-1.38.26-.48 0-.85-.1-1.09-.37-.21-.24-.3-.61-.3-1.17v-5.51h-1.54v-.74Zm12.14 5.75c-.43.86-1.38 2.06-3.31 2.06-2.14 0-3.52-1.46-3.52-4.05 0-2.32 1.39-3.94 3.44-3.94 2.21 0 3.33 1.7 3.33 3.95v.13h-5.79v.11c0 1.98 1.15 2.96 2.58 2.96s2.21-.96 2.56-1.7l.72.46Zm-5.82-2.61h4.74c0-1.23-.83-2.53-2.31-2.53-1.39 0-2.3.99-2.43 2.53m17.97 4.48h-7.01v-10.88h1.01v9.99h6v.9Zm7.69-1.87c-.43.86-1.38 2.06-3.31 2.06-2.14 0-3.52-1.46-3.52-4.05 0-2.32 1.39-3.94 3.44-3.94 2.21 0 3.33 1.7 3.33 3.95v.13h-5.79v.11c0 1.98 1.15 2.96 2.58 2.96s2.21-.96 2.56-1.7l.72.46Zm-5.82-2.61h4.74c0-1.23-.83-2.53-2.31-2.53-1.39 0-2.3.99-2.43 2.53m13.41 4.48h-.94v-4.1c0-1.2-.08-1.9-.48-2.34-.29-.32-.74-.5-1.36-.5-.69 0-1.2.24-1.55.62-.45.46-.64 1.14-.64 1.78v4.53h-.94v-7.62h.94v1.26c.29-.74 1.12-1.44 2.42-1.44.78 0 1.44.24 1.89.74.48.54.67 1.06.67 2.75v4.31Zm1.83-3.78c0-2.55 1.33-4.02 3.22-4.02 1.22 0 2.11.69 2.48 1.54v-4.63h.94v10.88h-.94v-1.36c-.4.9-1.23 1.55-2.53 1.55-1.87 0-3.17-1.41-3.17-3.97Zm3.4-3.2c-1.47 0-2.4 1.1-2.4 3.17s.86 3.19 2.37 3.19 2.37-1.12 2.37-3.17-.91-3.19-2.34-3.19m6.4-2.34h-.94v-1.57h.94zm0 9.32h-.94v-7.62h.94zm8.11 0h-.94v-4.1c0-1.2-.08-1.9-.48-2.34-.29-.32-.74-.5-1.36-.5-.69 0-1.2.24-1.55.62-.45.46-.64 1.14-.64 1.78v4.53h-.94v-7.62h.94v1.26c.29-.74 1.12-1.44 2.42-1.44.78 0 1.44.24 1.89.74.48.54.67 1.06.67 2.75v4.31Zm8.35-.31c0 2.39-1.02 3.47-3.28 3.47s-2.99-1.09-3.07-2.51l.91-.26c.1 1.1.61 1.97 2.16 1.97 2.08 0 2.34-1.36 2.34-3.01v-.78c-.4.9-1.25 1.5-2.5 1.5-1.94 0-3.2-1.46-3.2-3.92s1.33-3.95 3.22-3.95c1.22 0 2.08.61 2.48 1.42v-1.25h.94v7.31Zm-3.25-6.67c-1.47 0-2.4 1.09-2.4 3.11s.86 3.11 2.37 3.11 2.37-1.1 2.37-3.09-.91-3.12-2.34-3.12Zm55.22 2.16h-2.88v4.82h-1.01v-10.88h4.29c.91 0 1.83.06 2.61.56.85.51 1.36 1.31 1.36 2.48s-.51 1.95-1.36 2.46c-.54.35-1.18.5-1.81.54l3.46 4.83h-1.3l-3.36-4.82Zm-2.88-.9h3.06c1.07 0 1.54-.11 1.98-.3.7-.34 1.12-.94 1.12-1.84s-.42-1.5-1.12-1.82c-.45-.21-.91-.3-1.98-.3h-3.06v4.27Zm15.51 3.85c-.43.86-1.38 2.06-3.31 2.06-2.14 0-3.52-1.46-3.52-4.05 0-2.32 1.39-3.94 3.44-3.94 2.21 0 3.33 1.7 3.33 3.95v.13h-5.79v.11c0 1.98 1.15 2.96 2.58 2.96s2.21-.96 2.56-1.7l.72.46Zm-5.83-2.61h4.74c0-1.23-.83-2.53-2.31-2.53-1.39 0-2.3.99-2.43 2.53m7.26-.93c-.03-1.5 1.22-2.38 2.88-2.38 1.57 0 2.71.48 2.71 2.4v3.79c0 .62.05.99.61.99.26 0 .5-.1.58-.14v.74c-.18.1-.46.18-.82.18-.74 0-1.28-.4-1.25-1.23h-.02c-.27.59-1.1 1.26-2.46 1.26-1.5 0-2.43-.9-2.43-2.3 0-.66.21-1.15.58-1.49.5-.45 1.26-.66 2.19-.83l1.75-.32c.27-.05.38-.08.38-.42v-.24c0-1.06-.5-1.6-1.86-1.6-1.28 0-1.95.67-1.95 1.81l-.88-.21Zm4.69 1.31c-.14.05-.35.11-.96.22l-.94.18c-.53.1-1.01.21-1.36.4-.38.22-.64.56-.64 1.17 0 1.01.69 1.52 1.66 1.52 1.25 0 2.24-.82 2.24-2.08zm4.27 4.1h-.94v-10.88h.94zm13.27 0h-7.46v-10.88h7.14v.9h-6.13v3.94h5.55v.91h-5.55v4.24h6.45v.9Zm6.09-5.94a2.49 2.49 0 0 0-2.06-1.06c-.93 0-1.68.38-1.68 1.23 0 .8.51 1.09 1.52 1.31l1.01.24c1.28.29 2.27.75 2.27 2.11 0 1.49-1.25 2.27-2.96 2.29-1.52 0-2.66-.78-3.14-1.58l.77-.54c.48.77 1.33 1.31 2.48 1.31 1.28-.02 1.89-.59 1.89-1.41s-.69-1.09-1.6-1.31l-1.06-.26c-1.34-.32-2.14-.78-2.14-2.05 0-1.38 1.2-2.14 2.66-2.14 1.33 0 2.23.59 2.77 1.25l-.72.61Zm1.78-1.68h1.54v-2.85l.94-.21v3.06h1.82v.74H467v5.15c0 .38.02.66.14.83.11.14.29.21.59.21.46 0 .88-.14 1.09-.26v.85c-.27.13-.72.26-1.38.26-.48 0-.85-.1-1.09-.37-.21-.24-.3-.61-.3-1.17v-5.51h-1.54v-.74Zm5.52 2.21c-.03-1.5 1.22-2.38 2.88-2.38 1.57 0 2.71.48 2.71 2.4v3.79c0 .62.05.99.61.99.26 0 .5-.1.58-.14v.74c-.18.1-.46.18-.82.18-.74 0-1.28-.4-1.25-1.23h-.02c-.27.59-1.1 1.26-2.46 1.26-1.5 0-2.43-.9-2.43-2.3 0-.66.21-1.15.58-1.49.5-.45 1.26-.66 2.19-.83l1.75-.32c.27-.05.38-.08.38-.42v-.24c0-1.06-.5-1.6-1.86-1.6-1.28 0-1.95.67-1.95 1.81l-.88-.21Zm4.69 1.31c-.14.05-.35.11-.96.22l-.95.18c-.53.1-1.01.21-1.36.4-.38.22-.64.56-.64 1.17 0 1.01.69 1.52 1.66 1.52 1.25 0 2.24-.82 2.24-2.08v-1.41Zm2.41-3.52h1.54v-2.85l.94-.21v3.06h1.82v.74h-1.82v5.15c0 .38.02.66.14.83.11.14.29.21.59.21.46 0 .88-.14 1.09-.26v.85c-.27.13-.72.26-1.38.26-.48 0-.85-.1-1.09-.37-.21-.24-.3-.61-.3-1.17v-5.51h-1.54v-.74Zm12.15 5.75c-.43.86-1.38 2.06-3.31 2.06-2.14 0-3.52-1.46-3.52-4.05 0-2.32 1.39-3.94 3.44-3.94 2.21 0 3.33 1.7 3.33 3.95v.13h-5.79v.11c0 1.98 1.15 2.96 2.58 2.96s2.21-.96 2.56-1.7l.72.46Zm-5.83-2.61h4.74c0-1.23-.83-2.53-2.31-2.53-1.39 0-2.3.99-2.43 2.53m10.51-.93c-.03-1.5 1.22-2.38 2.88-2.38 1.57 0 2.71.48 2.71 2.4v3.79c0 .62.05.99.61.99.26 0 .5-.1.58-.14v.74c-.18.1-.46.18-.82.18-.74 0-1.28-.4-1.25-1.23h-.02c-.27.59-1.1 1.26-2.46 1.26-1.5 0-2.43-.9-2.43-2.3 0-.66.21-1.15.58-1.49.5-.45 1.26-.66 2.19-.83l1.75-.32c.27-.05.38-.08.38-.42v-.24c0-1.06-.5-1.6-1.86-1.6-1.28 0-1.95.67-1.95 1.81l-.88-.21Zm4.69 1.31c-.14.05-.35.11-.96.22l-.95.18c-.53.1-1.01.21-1.36.4-.38.22-.64.56-.64 1.17 0 1.01.69 1.52 1.66 1.52 1.25 0 2.24-.82 2.24-2.08v-1.41Zm9.27 4.1h-.94v-4.1c0-1.2-.08-1.9-.48-2.34-.29-.32-.74-.5-1.36-.5-.69 0-1.2.24-1.55.62-.45.46-.64 1.14-.64 1.78v4.53h-.94v-7.62h.94v1.26c.29-.74 1.12-1.44 2.42-1.44.78 0 1.44.24 1.89.74.48.54.67 1.06.67 2.75v4.31Zm1.71-3.78c0-2.55 1.33-4.02 3.22-4.02 1.22 0 2.11.69 2.48 1.54v-4.63h.94v10.88h-.94v-1.36c-.4.9-1.23 1.55-2.53 1.55-1.87 0-3.17-1.41-3.17-3.97Zm3.39-3.2c-1.47 0-2.4 1.1-2.4 3.17s.86 3.19 2.37 3.19 2.37-1.12 2.37-3.17-.91-3.19-2.34-3.19m9.94 6.98h-1.01v-10.88h1.01zm8.3 0h-.94v-4.1c0-1.2-.08-1.9-.48-2.34-.29-.32-.74-.5-1.36-.5-.69 0-1.2.24-1.55.62-.45.46-.64 1.14-.64 1.78v4.53h-.94v-7.62h.94v1.26c.29-.74 1.12-1.44 2.42-1.44.78 0 1.44.24 1.89.74.48.54.67 1.06.67 2.75v4.31Zm5.7-6.89h-1.73v6.88h-.94v-6.88h-1.73v-.74h1.73v-1.73c0-.64.13-.99.35-1.25.3-.35.79-.48 1.34-.48.43 0 .75.08.98.14v.86c-.26-.08-.59-.16-.91-.16-.27 0-.45.06-.58.18-.18.16-.24.4-.24.83v1.6h1.73v.74Zm5.13.07c-.18-.03-.35-.05-.53-.05-1.33 0-2.29 1.02-2.29 2.56v4.31h-.94v-7.62h.94v1.47c.27-.9 1.15-1.66 2.3-1.66.18 0 .34.02.51.05v.94Zm1.3 1.41c-.03-1.5 1.22-2.38 2.88-2.38 1.57 0 2.71.48 2.71 2.4v3.79c0 .62.05.99.61.99.26 0 .5-.1.58-.14v.74c-.18.1-.46.18-.82.18-.74 0-1.28-.4-1.25-1.23h-.02c-.27.59-1.1 1.26-2.46 1.26-1.5 0-2.43-.9-2.43-2.3 0-.66.21-1.15.58-1.49.5-.45 1.26-.66 2.19-.83l1.75-.32c.27-.05.38-.08.38-.42v-.24c0-1.06-.5-1.6-1.86-1.6-1.28 0-1.95.67-1.95 1.81l-.88-.21Zm4.69 1.31c-.14.05-.35.11-.96.22l-.95.18c-.53.1-1.01.21-1.36.4-.38.22-.64.56-.64 1.17 0 1.01.69 1.52 1.66 1.52 1.25 0 2.24-.82 2.24-2.08v-1.41Zm7.64-1.84a2.49 2.49 0 0 0-2.06-1.06c-.93 0-1.68.38-1.68 1.23 0 .8.51 1.09 1.52 1.31l1.01.24c1.28.29 2.27.75 2.27 2.11 0 1.49-1.25 2.27-2.96 2.29-1.52 0-2.66-.78-3.14-1.58l.77-.54c.48.77 1.33 1.31 2.48 1.31 1.28-.02 1.89-.59 1.89-1.41s-.69-1.09-1.6-1.31l-1.06-.26c-1.34-.32-2.14-.78-2.14-2.05 0-1.38 1.2-2.14 2.66-2.14 1.33 0 2.23.59 2.77 1.25l-.72.61Zm1.78-1.68h1.54v-2.85l.94-.21v3.06h1.82v.74h-1.82v5.15c0 .38.02.66.14.83.11.14.29.21.59.21.46 0 .88-.14 1.09-.26v.85c-.27.13-.72.26-1.38.26-.48 0-.85-.1-1.09-.37-.21-.24-.3-.61-.3-1.17v-5.51h-1.54v-.74Zm9.62.8c-.18-.03-.35-.05-.53-.05-1.33 0-2.29 1.02-2.29 2.56v4.31h-.94v-7.62h.94v1.47c.27-.9 1.15-1.66 2.3-1.66.18 0 .34.02.51.05v.94Zm1.32-.8h.94v4.35c0 .96.11 1.65.48 2.08.29.32.72.5 1.36.5 1.57 0 2.16-1.28 2.16-2.4v-4.53h.94v7.62h-.94v-1.25c-.29.74-1.09 1.44-2.38 1.44-.79 0-1.44-.24-1.89-.74-.43-.48-.67-1.14-.67-2.3zm13.21 2.29c-.38-1.07-1.07-1.66-2.14-1.66-1.5 0-2.46 1.22-2.46 3.2s.99 3.17 2.46 3.17c1.06 0 1.73-.48 2.21-1.46l.75.46c-.54 1.12-1.54 1.81-2.96 1.81-2.13 0-3.46-1.54-3.46-3.97s1.36-4.02 3.46-4.02c1.49 0 2.48.74 2.96 1.98l-.82.48Zm1.59-2.29h1.54v-2.85l.94-.21v3.06h1.82v.74h-1.82v5.15c0 .38.02.66.14.83.11.14.29.21.59.21.46 0 .88-.14 1.09-.26v.85c-.27.13-.72.26-1.38.26-.48 0-.85-.1-1.09-.37-.21-.24-.3-.61-.3-1.17v-5.51h-1.54v-.74Zm5.67 0h.94v4.35c0 .96.11 1.65.48 2.08.29.32.72.5 1.36.5 1.57 0 2.16-1.28 2.16-2.4v-4.53h.94v7.62h-.94v-1.25c-.29.74-1.09 1.44-2.39 1.44-.78 0-1.44-.24-1.89-.74-.43-.48-.67-1.14-.67-2.3v-4.77Zm11.89.8c-.18-.03-.35-.05-.53-.05-1.33 0-2.29 1.02-2.29 2.56v4.31h-.94v-7.62h.94v1.47c.27-.9 1.15-1.66 2.3-1.66.18 0 .34.02.51.05v.94Zm7.81 4.95c-.43.86-1.38 2.06-3.31 2.06-2.14 0-3.52-1.46-3.52-4.05 0-2.32 1.39-3.94 3.44-3.94 2.21 0 3.33 1.7 3.33 3.95v.13h-5.79v.11c0 1.98 1.15 2.96 2.58 2.96s2.21-.96 2.56-1.7l.72.46Zm-5.83-2.61h4.74c0-1.23-.83-2.53-2.31-2.53-1.39 0-2.3.99-2.43 2.53"/><path d="M83.65 342.94c0-3.17 1.3-5.63 4.07-5.63s4.07 2.47 4.07 5.63c0 2.93-1.1 5.63-4.07 5.63s-4.07-2.71-4.07-5.63m1.09-.03c0 2.46.67 4.79 2.98 4.79s2.96-2.32 2.96-4.79c0-2.66-.96-4.74-2.96-4.74s-2.98 2.08-2.98 4.74M32.06 284.2c.35-.53 1.2-1.14 2.46-1.14 2 0 3.51 1.39 3.51 3.68 0 2.14-1.3 3.89-3.7 3.89-1.86 0-3.2-.96-3.55-2.67l.9-.51c.16 1.07.98 2.32 2.66 2.32s2.63-1.17 2.63-3.02c0-1.55-.88-2.8-2.58-2.8-1.46 0-2.26.9-2.47 2.13l-.86-.19.35-6.32h5.89v.88h-4.99l-.24 3.76Zm7.73.8c0-3.17 1.3-5.63 4.07-5.63s4.07 2.47 4.07 5.63c0 2.93-1.1 5.63-4.07 5.63s-4.07-2.71-4.07-5.63m1.08-.04c0 2.46.67 4.79 2.98 4.79s2.96-2.32 2.96-4.79c0-2.66-.96-4.74-2.96-4.74s-2.98 2.08-2.98 4.74m8.31.04c0-3.17 1.3-5.63 4.07-5.63s4.07 2.47 4.07 5.63c0 2.93-1.1 5.63-4.07 5.63s-4.07-2.71-4.07-5.63m1.09-.04c0 2.46.67 4.79 2.98 4.79s2.96-2.32 2.96-4.79c0-2.66-.96-4.74-2.96-4.74s-2.98 2.08-2.98 4.74m10.01 3.65v1.7c0 .62-.08 1.04-.24 1.41-.22.5-.58.83-1.14.98v-.69c.56-.21.69-.8.69-1.42v-.14h-.62v-1.82h1.31Zm1.63-3.61c0-3.17 1.3-5.63 4.07-5.63s4.07 2.47 4.07 5.63c0 2.93-1.1 5.63-4.07 5.63s-4.07-2.71-4.07-5.63m1.09-.04c0 2.46.67 4.79 2.98 4.79s2.96-2.32 2.96-4.79c0-2.66-.96-4.74-2.96-4.74S63 282.3 63 284.96m8.4.04c0-3.17 1.3-5.63 4.07-5.63s4.07 2.47 4.07 5.63c0 2.93-1.1 5.63-4.07 5.63s-4.07-2.71-4.07-5.63m1.09-.04c0 2.46.67 4.79 2.98 4.79s2.96-2.32 2.96-4.79c0-2.66-.96-4.74-2.96-4.74s-2.98 2.08-2.98 4.74m8.3.04c0-3.17 1.3-5.63 4.07-5.63s4.07 2.47 4.07 5.63c0 2.93-1.1 5.63-4.07 5.63s-4.07-2.71-4.07-5.63m1.09-.04c0 2.46.67 4.79 2.98 4.79s2.96-2.32 2.96-4.79c0-2.66-.96-4.74-2.96-4.74s-2.98 2.08-2.98 4.74M21.39 232.5v-8.37c-.5.5-1.49.66-2.32.66-.16 0-.34 0-.51-.02v-.85h.26c.86 0 1.44-.16 1.86-.46.54-.4.8-1.02.83-1.86h.86v10.9zm6.61-1.82v1.7c0 .62-.08 1.04-.24 1.41-.22.5-.58.83-1.14.98v-.69c.56-.21.69-.8.69-1.42v-.14h-.62v-1.82H28Zm1.63-3.62c0-3.17 1.3-5.63 4.07-5.63s4.07 2.47 4.07 5.63c0 2.93-1.1 5.63-4.07 5.63s-4.07-2.71-4.07-5.63m1.09-.03c0 2.46.67 4.79 2.98 4.79s2.96-2.32 2.96-4.79c0-2.66-.96-4.74-2.96-4.74s-2.98 2.08-2.98 4.74m8.3.03c0-3.17 1.3-5.63 4.07-5.63s4.07 2.47 4.07 5.63c0 2.93-1.1 5.63-4.07 5.63s-4.07-2.71-4.07-5.63m1.09-.03c0 2.46.67 4.79 2.98 4.79s2.96-2.32 2.96-4.79c0-2.66-.96-4.74-2.96-4.74s-2.98 2.08-2.98 4.74m8.4.03c0-3.17 1.3-5.63 4.07-5.63s4.07 2.47 4.07 5.63c0 2.93-1.1 5.63-4.07 5.63s-4.07-2.71-4.07-5.63m1.09-.03c0 2.46.67 4.79 2.98 4.79s2.96-2.32 2.96-4.79c0-2.66-.96-4.74-2.96-4.74s-2.98 2.08-2.98 4.74m10.01 3.65v1.7c0 .62-.08 1.04-.24 1.41-.22.5-.58.83-1.14.98v-.69c.56-.21.69-.8.69-1.42v-.14h-.62v-1.82h1.31Zm1.63-3.62c0-3.17 1.3-5.63 4.07-5.63s4.07 2.47 4.07 5.63c0 2.93-1.1 5.63-4.07 5.63s-4.07-2.71-4.07-5.63m1.09-.03c0 2.46.67 4.79 2.98 4.79s2.96-2.32 2.96-4.79c0-2.66-.96-4.74-2.96-4.74s-2.98 2.08-2.98 4.74m8.3.03c0-3.17 1.3-5.63 4.07-5.63s4.07 2.47 4.07 5.63c0 2.93-1.1 5.63-4.07 5.63s-4.07-2.71-4.07-5.63m1.09-.03c0 2.46.67 4.79 2.98 4.79s2.96-2.32 2.96-4.79c0-2.66-.96-4.74-2.96-4.74s-2.98 2.08-2.98 4.74m8.4.03c0-3.17 1.3-5.63 4.07-5.63s4.07 2.47 4.07 5.63c0 2.93-1.1 5.63-4.07 5.63s-4.07-2.71-4.07-5.63m1.09-.03c0 2.46.67 4.79 2.98 4.79s2.96-2.32 2.96-4.79c0-2.66-.96-4.74-2.96-4.74s-2.98 2.08-2.98 4.74m-59.82-52.46v-8.37c-.5.5-1.49.66-2.32.66-.16 0-.34 0-.51-.02v-.85h.26c.86 0 1.44-.16 1.86-.46.54-.4.8-1.02.83-1.86h.86v10.9zm6.61-1.83v1.7c0 .62-.08 1.04-.24 1.41-.22.5-.58.83-1.14.98v-.69c.56-.21.69-.8.69-1.42v-.14h-.62v-1.82H28Zm3.39-4.42c.35-.53 1.2-1.14 2.46-1.14 2 0 3.51 1.39 3.51 3.68 0 2.14-1.3 3.89-3.7 3.89-1.86 0-3.2-.96-3.55-2.67l.9-.51c.16 1.07.98 2.32 2.66 2.32s2.63-1.17 2.63-3.02c0-1.55-.88-2.8-2.58-2.8-1.46 0-2.26.9-2.47 2.13l-.86-.19.35-6.32h5.89v.88h-4.99l-.24 3.76Zm7.63.8c0-3.17 1.3-5.63 4.07-5.63s4.07 2.47 4.07 5.63c0 2.93-1.1 5.63-4.07 5.63s-4.07-2.71-4.07-5.63m1.09-.03c0 2.46.67 4.79 2.98 4.79s2.96-2.32 2.96-4.79c0-2.66-.96-4.74-2.96-4.74s-2.98 2.08-2.98 4.74m8.4.03c0-3.17 1.3-5.63 4.07-5.63s4.07 2.47 4.07 5.63c0 2.93-1.1 5.63-4.07 5.63s-4.07-2.71-4.07-5.63m1.09-.03c0 2.46.67 4.79 2.98 4.79s2.96-2.32 2.96-4.79c0-2.66-.96-4.74-2.96-4.74s-2.98 2.08-2.98 4.74m10.01 3.65v1.7c0 .62-.08 1.04-.24 1.41-.22.5-.58.83-1.14.98v-.69c.56-.21.69-.8.69-1.42v-.14h-.62v-1.82h1.31Zm1.63-3.62c0-3.17 1.3-5.63 4.07-5.63s4.07 2.47 4.07 5.63c0 2.93-1.1 5.63-4.07 5.63s-4.07-2.71-4.07-5.63m1.09-.03c0 2.46.67 4.79 2.98 4.79s2.96-2.32 2.96-4.79c0-2.66-.96-4.74-2.96-4.74s-2.98 2.08-2.98 4.74m8.3.03c0-3.17 1.3-5.63 4.07-5.63s4.07 2.47 4.07 5.63c0 2.93-1.1 5.63-4.07 5.63s-4.07-2.71-4.07-5.63m1.09-.03c0 2.46.67 4.79 2.98 4.79s2.96-2.32 2.96-4.79c0-2.66-.96-4.74-2.96-4.74s-2.98 2.08-2.98 4.74m8.4.03c0-3.17 1.3-5.63 4.07-5.63s4.07 2.47 4.07 5.63c0 2.93-1.1 5.63-4.07 5.63s-4.07-2.71-4.07-5.63m1.09-.03c0 2.46.67 4.79 2.98 4.79s2.96-2.32 2.96-4.79c0-2.66-.96-4.74-2.96-4.74s-2.98 2.08-2.98 4.74m-63.45-58.56c-.27-.58-.37-1.15-.37-1.73 0-1.79 1.33-3.27 3.47-3.27 2.4 0 3.55 1.62 3.55 3.54 0 2.29-1.58 3.7-3.12 4.95-1.01.8-2 1.49-2.38 1.71h5.55v.88h-6.95v-.88c.85-.56 2.38-1.74 3.76-2.9 1.15-1.04 2.1-2.05 2.1-3.73s-1.14-2.72-2.54-2.72c-1.62 0-2.43 1.14-2.43 2.45 0 .86.32 1.6.51 1.87l-1.15-.18ZM28 114.78v1.7c0 .62-.08 1.04-.24 1.41-.22.5-.58.83-1.14.98v-.69c.56-.21.69-.8.69-1.42v-.14h-.62v-1.82H28Zm1.63-3.61c0-3.17 1.3-5.63 4.07-5.63s4.07 2.47 4.07 5.63c0 2.93-1.1 5.63-4.07 5.63s-4.07-2.71-4.07-5.63m1.09-.03c0 2.46.67 4.79 2.98 4.79s2.96-2.32 2.96-4.79c0-2.66-.96-4.74-2.96-4.74s-2.98 2.08-2.98 4.74m8.3.03c0-3.17 1.3-5.63 4.07-5.63s4.07 2.47 4.07 5.63c0 2.93-1.1 5.63-4.07 5.63s-4.07-2.71-4.07-5.63m1.09-.03c0 2.46.67 4.79 2.98 4.79s2.96-2.32 2.96-4.79c0-2.66-.96-4.74-2.96-4.74s-2.98 2.08-2.98 4.74m8.4.03c0-3.17 1.3-5.63 4.07-5.63s4.07 2.47 4.07 5.63c0 2.93-1.1 5.63-4.07 5.63s-4.07-2.71-4.07-5.63m1.09-.03c0 2.46.67 4.79 2.98 4.79s2.96-2.32 2.96-4.79c0-2.66-.96-4.74-2.96-4.74s-2.98 2.08-2.98 4.74m10.01 3.64v1.7c0 .62-.08 1.04-.24 1.41-.22.5-.58.83-1.14.98v-.69c.56-.21.69-.8.69-1.42v-.14h-.62v-1.82h1.31Zm1.63-3.61c0-3.17 1.3-5.63 4.07-5.63s4.07 2.47 4.07 5.63c0 2.93-1.1 5.63-4.07 5.63s-4.07-2.71-4.07-5.63m1.09-.03c0 2.46.67 4.79 2.98 4.79s2.96-2.32 2.96-4.79c0-2.66-.96-4.74-2.96-4.74s-2.98 2.08-2.98 4.74m8.3.03c0-3.17 1.3-5.63 4.07-5.63s4.07 2.47 4.07 5.63c0 2.93-1.1 5.63-4.07 5.63s-4.07-2.71-4.07-5.63m1.09-.03c0 2.46.67 4.79 2.98 4.79s2.96-2.32 2.96-4.79c0-2.66-.96-4.74-2.96-4.74s-2.98 2.08-2.98 4.74m8.4.03c0-3.17 1.3-5.63 4.07-5.63s4.07 2.47 4.07 5.63c0 2.93-1.1 5.63-4.07 5.63s-4.07-2.71-4.07-5.63m1.09-.03c0 2.46.67 4.79 2.98 4.79s2.96-2.32 2.96-4.79c0-2.66-.96-4.74-2.96-4.74s-2.98 2.08-2.98 4.74M17.76 52.57c-.27-.58-.37-1.15-.37-1.73 0-1.79 1.33-3.27 3.47-3.27 2.4 0 3.55 1.62 3.55 3.54 0 2.29-1.58 3.7-3.12 4.95-1.01.8-2 1.49-2.38 1.71h5.55v.88h-6.95v-.88c.85-.56 2.38-1.74 3.76-2.9 1.15-1.04 2.1-2.05 2.1-3.73s-1.14-2.72-2.54-2.72c-1.62 0-2.43 1.14-2.43 2.45 0 .86.32 1.6.51 1.87l-1.15-.18ZM28 56.83v1.7c0 .62-.08 1.04-.24 1.41-.22.5-.58.83-1.14.98v-.69c.56-.21.69-.8.69-1.42v-.14h-.62v-1.82H28Zm3.39-4.42c.35-.53 1.2-1.14 2.46-1.14 2 0 3.51 1.39 3.51 3.68 0 2.14-1.3 3.89-3.7 3.89-1.86 0-3.2-.96-3.55-2.67l.9-.51c.16 1.07.98 2.32 2.66 2.32s2.63-1.17 2.63-3.02c0-1.55-.88-2.8-2.58-2.8-1.46 0-2.26.9-2.47 2.13l-.86-.19.35-6.32h5.89v.88h-4.99l-.24 3.76Zm7.63.8c0-3.17 1.3-5.63 4.07-5.63s4.07 2.47 4.07 5.63c0 2.93-1.1 5.63-4.07 5.63s-4.07-2.71-4.07-5.63m1.09-.03c0 2.46.67 4.79 2.98 4.79s2.96-2.32 2.96-4.79c0-2.66-.96-4.74-2.96-4.74s-2.98 2.08-2.98 4.74m8.4.03c0-3.17 1.3-5.63 4.07-5.63s4.07 2.47 4.07 5.63c0 2.93-1.1 5.63-4.07 5.63s-4.07-2.71-4.07-5.63m1.09-.03c0 2.46.67 4.79 2.98 4.79s2.96-2.32 2.96-4.79c0-2.66-.96-4.74-2.96-4.74s-2.98 2.08-2.98 4.74m10.01 3.65v1.7c0 .62-.08 1.04-.24 1.41-.22.5-.58.83-1.14.98v-.69c.56-.21.69-.8.69-1.42v-.14h-.62v-1.82h1.31Zm1.63-3.62c0-3.17 1.3-5.63 4.07-5.63s4.07 2.47 4.07 5.63c0 2.93-1.1 5.63-4.07 5.63s-4.07-2.71-4.07-5.63m1.09-.03c0 2.46.67 4.79 2.98 4.79s2.96-2.32 2.96-4.79c0-2.66-.96-4.74-2.96-4.74s-2.98 2.08-2.98 4.74m8.3.03c0-3.17 1.3-5.63 4.07-5.63s4.07 2.47 4.07 5.63c0 2.93-1.1 5.63-4.07 5.63s-4.07-2.71-4.07-5.63m1.09-.03c0 2.46.67 4.79 2.98 4.79s2.96-2.32 2.96-4.79c0-2.66-.96-4.74-2.96-4.74s-2.98 2.08-2.98 4.74m8.4.03c0-3.17 1.3-5.63 4.07-5.63s4.07 2.47 4.07 5.63c0 2.93-1.1 5.63-4.07 5.63s-4.07-2.71-4.07-5.63m1.09-.03c0 2.46.67 4.79 2.98 4.79s2.96-2.32 2.96-4.79c0-2.66-.96-4.74-2.96-4.74s-2.98 2.08-2.98 4.74m254.62 122.66v-10.88h4c.98 0 2 .05 2.9.5 1.68.82 2.5 2.77 2.5 4.91 0 1.87-.61 3.36-1.62 4.34-1.15 1.14-2.46 1.14-4.48 1.14h-3.3Zm2.41-2.26h1.1c1.1 0 1.98-.02 2.53-.56.46-.46.86-1.38.86-2.59 0-1.15-.37-2.1-.98-2.62-.56-.48-1.33-.56-2.59-.56h-.93v6.34Zm12.2-5.55c2.4 0 4.05 1.46 4.05 4.03s-1.65 3.97-4.05 3.97-4.03-1.39-4.03-3.97 1.63-4.03 4.03-4.03m0 6.22c1.07 0 1.68-.83 1.68-2.22s-.59-2.24-1.68-2.24-1.66.83-1.66 2.24.59 2.22 1.66 2.22m10.92-5.34v-3.95h2.34v10.88h-2.34v-.7c-.37.42-1.19.9-2.24.9-2.16 0-3.54-1.6-3.54-4s1.42-4 3.55-4c1.1 0 1.84.42 2.23.88Zm-1.68.9c-1.09 0-1.73.86-1.73 2.22s.59 2.24 1.73 2.24c1.04 0 1.75-.91 1.75-2.24s-.7-2.22-1.75-2.22m11.29-.9v-3.95h2.34v10.88h-2.34v-.7c-.37.42-1.18.9-2.24.9-2.16 0-3.54-1.6-3.54-4s1.42-4 3.55-4c1.1 0 1.84.42 2.22.88Zm-1.68.9c-1.09 0-1.73.86-1.73 2.22s.59 2.24 1.73 2.24c1.04 0 1.74-.91 1.74-2.24s-.71-2.22-1.74-2.22m5.87 2.43v-2.21h4.55v2.21zm9.04-5.16v2.15h4.43v2.16h-4.43v4.45h-2.42v-10.88h7.06v2.13h-4.64Zm8.29 1.14v1.04c.21-.58 1.07-1.22 2.14-1.22.1 0 .18 0 .27.02v2.24c-.26-.06-.54-.1-.75-.1-.9 0-1.34.43-1.52 1.07-.08.29-.11.64-.11 1.02v3.54h-2.34v-7.62h2.3Zm10.26 5.72c0 .48.06.64.4.64h.11v1.34c-.34.06-.67.1-1.09.1-.67 0-1.3-.13-1.46-.69h-.02c-.35.37-.99.7-2.14.7-1.68 0-2.75-.88-2.75-2.43 0-.83.35-1.38.96-1.74.46-.27.98-.43 1.87-.58l1.47-.24c.42-.06.48-.11.48-.35v-.13c0-.58-.32-.9-1.12-.9s-1.26.34-1.26 1.1l-2.16-.02c-.03-1.76 1.33-2.69 3.52-2.69 1.95 0 3.19.61 3.19 2.34v3.54Zm-2.18-1.56c-.16.06-.35.13-.85.24l-.53.11c-.3.06-.56.13-.75.26-.21.13-.32.34-.32.62 0 .62.46.9 1.14.9.77 0 1.31-.35 1.31-1.15zm11.46 3.46h-2.34V172c0-1.17-.05-1.98-1.2-1.98-.98 0-1.39.77-1.39 1.81v4.02h-2.34v-7.62h2.3v.94c.37-.62 1.2-1.14 2.29-1.14.88 0 1.55.24 2 .74.48.54.67 1.07.67 2.75v4.32Zm4.17-10.88v5.78l2.43-2.51h3.09l-3.1 2.96 3.33 4.66h-2.88l-2.13-3.11-.74.69v2.42h-2.34v-10.88h2.34Zm11.16 10.88h-2.54l3.67-10.88h2.93l3.63 10.88h-2.59l-.64-2.16h-3.83l-.62 2.16Zm2.93-7.22c-.19-.69-.37-1.41-.37-1.41h-.02s-.19.72-.4 1.42l-.93 3.06h2.61l-.9-3.07Zm12.78 5.33c-.42 1.07-1.49 2.08-3.5 2.08-2.4 0-4.03-1.39-4.03-3.97s1.63-4.03 4.03-4.03c2.11 0 3.2 1.14 3.58 2.37l-2.02.69c-.22-.83-.75-1.3-1.57-1.3-1.09 0-1.67.83-1.67 2.24s.59 2.22 1.67 2.22c.75 0 1.28-.4 1.52-1.12l1.98.82Zm6.13 1.92c-.32.06-.85.13-1.41.13-.91 0-1.87-.13-2.27-.66-.29-.38-.32-.8-.32-1.57v-3.97h-1.47v-1.58h1.47v-2.59l2.34-.46v3.06h1.67v1.58h-1.67v3.38c0 .43.05.64.19.78.16.18.45.24.88.24.27 0 .48-.02.59-.03v1.7Zm1.4-3.66v-2.14h11.19v2.14zm21.89-.8c0 1.6-.14 2.29-.56 2.99-.69 1.22-2.18 1.63-3.81 1.63s-3.12-.42-3.81-1.63c-.42-.7-.56-1.39-.56-2.99v-6.45h2.42v6.4c0 .98.06 1.3.21 1.68.27.62.86.91 1.75.91s1.49-.29 1.76-.91c.14-.32.19-.67.19-1.68v-6.4h2.42v6.45Zm8.88-3.46c-.75-.72-1.73-1.18-2.82-1.18-1.01 0-1.71.42-1.71 1.1s.5.99 1.49 1.18l1.76.35c2.02.4 3.28 1.2 3.28 3.12 0 2.26-2 3.51-4.58 3.51s-4.24-1.34-4.91-2.27l1.68-1.44c.67.9 1.79 1.7 3.3 1.7 1.26 0 2-.5 2-1.3 0-.75-.64-.96-1.63-1.14l-1.41-.27c-1.99-.38-3.49-1.1-3.49-3.23 0-1.95 1.81-3.31 4.19-3.31 1.92 0 3.46.72 4.39 1.71zm5.86 5.06v1.73c0 .91-.05 1.46-.18 1.91-.32 1.06-.94 1.58-2.37 1.62v-1.23c.75-.05 1.15-.37 1.15-1.18h-1.15v-2.83h2.54Zm-136.15 26.03v-10.88h4.64c1.33 0 1.95.14 2.48.42.88.48 1.41 1.26 1.41 2.4 0 1.25-.82 2-1.71 2.3v.02c1.14.34 2.11 1.15 2.11 2.69 0 1.22-.54 2.08-1.47 2.59-.56.3-1.17.46-2.61.46zm5.73-8.63c-.29-.19-.64-.24-1.38-.24h-1.97v2.32h1.95c.83 0 1.17-.03 1.47-.3.21-.19.34-.51.34-.9s-.18-.72-.42-.88Zm-3.34 6.6h2.02c.85 0 1.25-.03 1.55-.24.32-.19.51-.61.51-1.14 0-.61-.3-1.02-.78-1.18-.29-.08-.66-.11-1.28-.11h-2.02zm14.62.12c0 .48.06.64.4.64h.11v1.34c-.34.06-.67.1-1.09.1-.67 0-1.3-.13-1.46-.69h-.02c-.35.37-.99.7-2.15.7-1.68 0-2.75-.88-2.75-2.43 0-.83.35-1.38.96-1.74.46-.27.98-.43 1.87-.58l1.47-.24c.42-.06.48-.11.48-.35v-.13c0-.58-.32-.9-1.12-.9s-1.26.34-1.26 1.1l-2.16-.02c-.03-1.76 1.33-2.69 3.52-2.69 1.95 0 3.19.61 3.19 2.34v3.54Zm-2.17-1.55c-.16.06-.35.13-.85.24l-.53.11c-.3.06-.56.13-.75.26-.21.13-.32.34-.32.62 0 .62.46.9 1.14.9.77 0 1.31-.35 1.31-1.15zm9.16-1.84c-.56-.51-1.31-.83-2.06-.83-.53 0-.99.18-.99.56s.35.51 1.14.67l1.2.26c1.23.26 2.35.75 2.35 2.21 0 1.78-1.55 2.62-3.36 2.62s-3.22-.77-3.91-1.71l1.47-1.18c.46.64 1.38 1.17 2.43 1.17.79 0 1.18-.26 1.18-.67s-.46-.51-.98-.61l-1.2-.24c-.77-.14-1.42-.4-1.89-.8-.42-.35-.66-.85-.66-1.49 0-1.81 1.74-2.47 3.25-2.47 1.42 0 2.56.53 3.33 1.26l-1.31 1.25Zm10.2 3.68c-.45.64-1.55 1.81-3.65 1.81-2.24 0-3.95-1.47-3.95-4.03 0-2.38 1.63-3.97 3.91-3.97 2.51 0 3.79 1.81 3.79 4.13 0 .16 0 .34-.02.48h-5.43c.08.83.69 1.55 1.84 1.55 1.03 0 1.63-.61 1.89-1.06zm-5.35-3.09h3.18c-.05-.88-.61-1.49-1.55-1.49s-1.6.69-1.63 1.49m9.3 4.71h-2.34v-10.88h2.34zm7.81 0h-2.42v-10.88h2.42zm4.75 0h-2.42v-10.88h2.42zm4.75 0h-2.42v-10.88h2.42zm2.08-3.63v-2.14h11.19v2.14zm15.65-5.13v2.15h4.74v2.11h-4.74v2.35h5.62v2.14h-8.02v-10.88h7.65v2.13zm6.92 1.14h2.34v3.84c0 1.17.02 1.98 1.17 1.98.94 0 1.36-.77 1.36-1.81v-4.02h2.34v7.62h-2.3v-.94c-.37.62-1.18 1.14-2.26 1.14-.88 0-1.52-.24-1.97-.74-.48-.54-.67-1.07-.67-2.75v-4.32Zm11.43 0v1.04c.21-.58 1.07-1.22 2.14-1.22.1 0 .18 0 .27.02v2.24c-.26-.06-.54-.1-.75-.1-.9 0-1.34.43-1.52 1.07-.08.29-.11.64-.11 1.02v3.54h-2.34v-7.62h2.31Zm7.28-.19c2.4 0 4.05 1.46 4.05 4.03s-1.65 3.97-4.05 3.97-4.03-1.39-4.03-3.97 1.63-4.03 4.03-4.03m0 6.22c1.07 0 1.68-.83 1.68-2.22s-.59-2.24-1.68-2.24-1.67.83-1.67 2.24.59 2.22 1.67 2.22m7.89.9v3.57h-2.34v-10.5h2.34v.7c.37-.42 1.18-.9 2.23-.9 2.18 0 3.55 1.6 3.55 4s-1.42 4-3.55 4c-.93 0-1.73-.3-2.23-.88Zm1.68-.9c1.09 0 1.73-.86 1.73-2.22s-.59-2.24-1.73-2.24c-1.04 0-1.74.91-1.74 2.24s.7 2.22 1.74 2.22m12.78-.03c-.45.64-1.55 1.81-3.65 1.81-2.24 0-3.95-1.47-3.95-4.03 0-2.38 1.63-3.97 3.91-3.97 2.51 0 3.79 1.81 3.79 4.13 0 .16 0 .34-.02.48h-5.43c.08.83.69 1.55 1.84 1.55 1.02 0 1.63-.61 1.89-1.06zm-5.34-3.09h3.19c-.05-.88-.61-1.49-1.55-1.49s-1.6.69-1.63 1.49ZM348.5 220.34c0 .48.06.64.4.64h.11v1.34c-.34.06-.67.1-1.09.1-.67 0-1.3-.13-1.46-.69h-.02c-.35.37-.99.71-2.14.71-1.68 0-2.75-.88-2.75-2.43 0-.83.35-1.38.96-1.74.46-.27.98-.43 1.87-.58l1.47-.24c.42-.06.48-.11.48-.35v-.13c0-.58-.32-.9-1.12-.9s-1.26.34-1.26 1.1l-2.16-.02c-.03-1.76 1.33-2.69 3.52-2.69 1.95 0 3.19.61 3.19 2.34zm-2.18-1.56c-.16.06-.35.13-.85.24l-.53.11c-.3.06-.56.13-.75.26-.21.13-.32.34-.32.62 0 .62.46.9 1.14.9.77 0 1.31-.35 1.31-1.15zm11.46 3.46h-2.34v-3.84c0-1.17-.05-1.98-1.2-1.98-.98 0-1.39.77-1.39 1.81v4.02h-2.34v-7.62h2.3v.94c.37-.62 1.2-1.14 2.29-1.14.88 0 1.55.24 2 .74.48.54.67 1.07.67 2.75v4.32Zm7.2-6.93v-3.95h2.34v10.88h-2.34v-.7c-.37.42-1.18.9-2.24.9-2.16 0-3.54-1.6-3.54-4s1.42-4 3.55-4c1.1 0 1.84.42 2.22.88Zm-1.68.9c-1.09 0-1.73.86-1.73 2.22s.59 2.24 1.73 2.24c1.04 0 1.74-.91 1.74-2.24s-.71-2.22-1.74-2.22m11.74 2.03v4h-2.4v-10.88h4.08c1.22 0 2.02.11 2.59.34 1.26.51 2.1 1.52 2.1 3.12s-.88 2.74-2.29 3.12l2.71 4.31h-2.74l-2.43-4h-1.62Zm0-2.08h1.91c.61 0 1.18-.03 1.57-.29.32-.21.51-.54.51-1.06s-.19-.85-.51-1.06c-.38-.26-.96-.29-1.57-.29h-1.91v2.69Zm14.98 4.46c-.45.64-1.55 1.81-3.65 1.81-2.24 0-3.95-1.47-3.95-4.03 0-2.38 1.63-3.97 3.9-3.97 2.51 0 3.79 1.81 3.79 4.13 0 .16 0 .34-.02.48h-5.43c.08.83.69 1.55 1.84 1.55 1.02 0 1.63-.61 1.89-1.06l1.62 1.09Zm-5.34-3.09h3.19c-.05-.88-.61-1.49-1.55-1.49s-1.6.69-1.63 1.49Zm11.87-.59c-.56-.51-1.31-.83-2.06-.83-.53 0-.99.18-.99.56s.35.51 1.14.67l1.2.26c1.23.26 2.35.75 2.35 2.21 0 1.78-1.55 2.62-3.36 2.62s-3.22-.77-3.91-1.71l1.47-1.18c.46.64 1.38 1.17 2.43 1.17.78 0 1.18-.26 1.18-.67s-.46-.51-.98-.61l-1.2-.24c-.77-.14-1.42-.4-1.89-.8-.42-.35-.66-.85-.66-1.49 0-1.81 1.74-2.47 3.25-2.47 1.43 0 2.56.53 3.33 1.26l-1.31 1.25Zm2.92-2.32h2.34v3.84c0 1.17.02 1.98 1.17 1.98.94 0 1.36-.77 1.36-1.81v-4.02h2.34v7.62h-2.3v-.94c-.37.62-1.18 1.14-2.26 1.14-.88 0-1.52-.24-1.97-.74-.48-.54-.67-1.07-.67-2.75v-4.32Zm11.53 7.62h-2.34v-10.88H411zm6.7.03c-.32.06-.85.13-1.41.13-.91 0-1.87-.13-2.27-.66-.29-.38-.32-.8-.32-1.57v-3.97h-1.47v-1.58h1.47v-2.59l2.34-.46v3.06h1.67v1.58h-1.67v3.38c0 .43.05.64.19.78.16.18.45.24.88.24.27 0 .48-.02.59-.03v1.7Zm3.81-8.63h-2.35v-2.29h2.35zm0 8.6h-2.35v-7.62h2.35zm9.18 0h-2.34v-3.84c0-1.17-.05-1.98-1.2-1.98-.98 0-1.39.77-1.39 1.81v4.02h-2.34v-7.62h2.3v.94c.37-.62 1.2-1.14 2.29-1.14.88 0 1.55.24 2 .74.48.54.67 1.07.67 2.75v4.32Zm3.79.13c.13.67.5 1.2 1.67 1.2 1.25 0 1.71-.53 1.71-1.71v-.54c-.27.32-.99.83-2.26.83-2.11 0-3.49-1.58-3.49-3.87 0-2.13 1.46-3.84 3.52-3.84 1.01 0 1.81.37 2.24.85v-.66h2.34v6.83c0 2.74-1.09 3.86-4.11 3.86-2.74 0-3.67-1.23-3.79-2.79l2.18-.16Zm1.7-6.16c-1.04 0-1.71.83-1.71 2.1s.62 2.11 1.71 2.11c1.01 0 1.74-.85 1.74-2.11s-.75-2.1-1.74-2.1m9.34 6.03v-10.88h4.64c1.33 0 1.95.14 2.48.42.88.48 1.41 1.26 1.41 2.4 0 1.25-.82 2-1.71 2.3v.02c1.14.34 2.11 1.15 2.11 2.69 0 1.22-.54 2.08-1.47 2.59-.56.3-1.17.46-2.61.46zm5.73-8.63c-.29-.19-.64-.24-1.38-.24h-1.97v2.32h1.95c.83 0 1.17-.03 1.47-.3.21-.19.34-.51.34-.9s-.18-.72-.42-.88Zm-3.34 6.6h2.02c.85 0 1.25-.03 1.55-.24.32-.19.51-.61.51-1.14 0-.61-.3-1.02-.78-1.18-.29-.08-.66-.11-1.28-.11h-2.02zm14.62.13c0 .48.06.64.4.64h.11v1.34c-.34.06-.67.1-1.09.1-.67 0-1.3-.13-1.46-.69h-.02c-.35.37-.99.71-2.15.71-1.68 0-2.75-.88-2.75-2.43 0-.83.35-1.38.96-1.74.46-.27.98-.43 1.87-.58l1.47-.24c.42-.06.48-.11.48-.35v-.13c0-.58-.32-.9-1.12-.9s-1.26.34-1.26 1.1l-2.16-.02c-.03-1.76 1.33-2.69 3.52-2.69 1.95 0 3.19.61 3.19 2.34v3.54Zm-2.17-1.56c-.16.06-.35.13-.85.24l-.53.11c-.3.06-.56.13-.75.26-.21.13-.32.34-.32.62 0 .62.46.9 1.14.9.77 0 1.31-.35 1.31-1.15zm11.45 3.46h-2.34v-3.84c0-1.17-.05-1.98-1.2-1.98-.98 0-1.39.77-1.39 1.81v4.02h-2.34v-7.62h2.31v.94c.37-.62 1.2-1.14 2.29-1.14.88 0 1.55.24 2 .74.48.54.67 1.07.67 2.75zm4.18-10.89v5.78l2.43-2.51h3.09l-3.11 2.96 3.33 4.66h-2.88l-2.13-3.11-.74.69v2.42h-2.34v-10.88h2.34Zm-113.24 30.09v4h-2.4v-10.88h4.08c1.22 0 2.02.11 2.59.34 1.26.51 2.1 1.52 2.1 3.12s-.88 2.74-2.29 3.12l2.71 4.31h-2.74l-2.43-4h-1.62Zm0-2.08h1.9c.61 0 1.18-.03 1.57-.29.32-.21.51-.54.51-1.06s-.19-.85-.51-1.06c-.38-.26-.96-.29-1.57-.29h-1.9v2.69Zm14.98 4.46c-.45.64-1.55 1.81-3.65 1.81-2.24 0-3.95-1.47-3.95-4.03 0-2.38 1.63-3.97 3.9-3.97 2.51 0 3.79 1.81 3.79 4.13 0 .16 0 .34-.02.48h-5.43c.08.83.69 1.55 1.84 1.55 1.02 0 1.63-.61 1.89-1.06l1.62 1.09Zm-5.35-3.09h3.19c-.05-.88-.61-1.49-1.55-1.49s-1.6.69-1.63 1.49Zm11.54 4.74c-.32.06-.85.13-1.41.13-.91 0-1.87-.13-2.27-.66-.29-.38-.32-.8-.32-1.57v-3.97h-1.47v-1.58h1.47v-2.59l2.34-.46v3.06h1.66v1.58h-1.66v3.38c0 .43.05.64.19.78.16.18.45.24.88.24.27 0 .48-.02.59-.03v1.7Zm3.75-7.65v1.04c.21-.58 1.07-1.22 2.15-1.22.1 0 .18 0 .27.02v2.24c-.26-.06-.54-.1-.75-.1-.9 0-1.34.43-1.52 1.07-.08.29-.11.64-.11 1.02v3.54h-2.34v-7.62h2.3Zm10.86 6c-.45.64-1.55 1.81-3.65 1.81-2.24 0-3.95-1.47-3.95-4.03 0-2.38 1.63-3.97 3.91-3.97 2.51 0 3.79 1.81 3.79 4.13 0 .16 0 .34-.02.48h-5.43c.08.83.69 1.55 1.84 1.55 1.02 0 1.63-.61 1.89-1.06zm-5.35-3.09h3.18c-.05-.88-.61-1.49-1.55-1.49s-1.6.69-1.63 1.49m14.16 4.71H405v-3.84c0-1.17-.05-1.98-1.2-1.98-.98 0-1.39.77-1.39 1.81v4.02h-2.34v-7.62h2.3v.94c.37-.62 1.2-1.14 2.29-1.14.88 0 1.55.24 2 .74.48.54.67 1.07.67 2.75v4.32Zm8.96-1.89c-.42 1.07-1.49 2.08-3.51 2.08-2.4 0-4.03-1.39-4.03-3.97s1.63-4.03 4.03-4.03c2.11 0 3.2 1.14 3.59 2.37l-2.02.69c-.22-.83-.75-1.3-1.57-1.3-1.09 0-1.66.83-1.66 2.24s.59 2.22 1.66 2.22c.75 0 1.28-.4 1.52-1.12l1.98.82Zm8.67 1.89h-2.34v-3.84c0-1.17-.05-1.98-1.2-1.98-.98 0-1.39.77-1.39 1.81v4.02h-2.34v-10.88h2.34v4.16c.37-.59 1.17-1.09 2.26-1.09.88 0 1.55.24 2 .74.48.54.67 1.07.67 2.75v4.32Zm8.99 0h-2.34v-3.84c0-1.17-.02-1.98-1.17-1.98-.94 0-1.31.77-1.31 1.81v4.02h-2.34v-7.62h2.3v.94c.37-.62 1.17-1.14 2.23-1.14q1.77 0 2.37 1.38c.35-.66 1.23-1.38 2.45-1.38.88 0 1.5.24 1.95.74.48.54.67 1.07.67 2.75v4.32h-2.34v-3.84c0-1.17 0-1.98-1.15-1.98-.96 0-1.33.77-1.33 1.81v4.02Zm13.84-1.62c-.45.64-1.55 1.81-3.65 1.81-2.24 0-3.95-1.47-3.95-4.03 0-2.38 1.63-3.97 3.91-3.97 2.51 0 3.79 1.81 3.79 4.13 0 .16 0 .34-.02.48h-5.43c.08.83.69 1.55 1.84 1.55 1.02 0 1.63-.61 1.89-1.06zm-5.34-3.09h3.19c-.05-.88-.61-1.49-1.55-1.49s-1.6.69-1.63 1.49Zm14.16 4.71h-2.34v-3.84c0-1.17-.05-1.98-1.2-1.98-.98 0-1.39.77-1.39 1.81v4.02h-2.34v-7.62h2.31v.94c.37-.62 1.2-1.14 2.29-1.14.88 0 1.55.24 2 .74.48.54.67 1.07.67 2.75zm6.46.03c-.32.06-.85.13-1.41.13-.91 0-1.87-.13-2.27-.66-.29-.38-.32-.8-.32-1.57v-3.97h-1.47v-1.58h1.47v-2.59l2.34-.46v3.06h1.67v1.58h-1.67v3.38c0 .43.05.64.19.78.16.18.45.24.88.24.27 0 .48-.02.59-.03v1.7ZM113.55 356.32c0-3.17 1.3-5.63 4.07-5.63s4.07 2.47 4.07 5.63c0 2.93-1.1 5.63-4.07 5.63s-4.07-2.71-4.07-5.63m1.09-.03c0 2.46.67 4.79 2.98 4.79s2.96-2.32 2.96-4.79c0-2.66-.96-4.74-2.96-4.74s-2.98 2.08-2.98 4.74m8.4.03c0-3.17 1.3-5.63 4.07-5.63s4.07 2.47 4.07 5.63c0 2.93-1.1 5.63-4.07 5.63s-4.07-2.71-4.07-5.63m1.09-.03c0 2.46.67 4.79 2.98 4.79s2.96-2.32 2.96-4.79c0-2.66-.96-4.74-2.96-4.74s-2.98 2.08-2.98 4.74m18.01.03c0-3.17 1.3-5.63 4.07-5.63s4.07 2.47 4.07 5.63c0 2.93-1.1 5.63-4.07 5.63s-4.07-2.71-4.07-5.63m1.09-.03c0 2.46.67 4.79 2.98 4.79s2.96-2.32 2.96-4.79c0-2.66-.96-4.74-2.96-4.74s-2.98 2.08-2.98 4.74m12.9 5.47v-8.37c-.5.5-1.49.66-2.32.66-.16 0-.34 0-.51-.02v-.85h.26c.86 0 1.44-.16 1.86-.46.54-.4.8-1.02.83-1.86h.86v10.9zm14.6-5.44c0-3.17 1.3-5.63 4.07-5.63s4.07 2.47 4.07 5.63c0 2.93-1.1 5.63-4.07 5.63s-4.07-2.71-4.07-5.63m1.09-.03c0 2.46.67 4.79 2.98 4.79s2.96-2.32 2.96-4.79c0-2.66-.96-4.74-2.96-4.74s-2.98 2.08-2.98 4.74m9.26-.61c-.27-.58-.37-1.15-.37-1.73 0-1.79 1.33-3.27 3.47-3.27 2.4 0 3.55 1.62 3.55 3.54 0 2.29-1.58 3.7-3.12 4.95-1.01.8-2 1.49-2.38 1.71h5.55v.88h-6.95v-.88c.85-.56 2.38-1.74 3.76-2.9 1.15-1.04 2.1-2.05 2.1-3.73s-1.14-2.72-2.54-2.72c-1.62 0-2.43 1.14-2.43 2.45 0 .86.32 1.6.51 1.87l-1.15-.18Zm18.24.64c0-3.17 1.3-5.63 4.07-5.63s4.07 2.47 4.07 5.63c0 2.93-1.1 5.63-4.07 5.63s-4.07-2.71-4.07-5.63m1.09-.03c0 2.46.67 4.79 2.98 4.79s2.96-2.32 2.96-4.79c0-2.66-.96-4.74-2.96-4.74s-2.98 2.08-2.98 4.74m8.98-2.93c0-.85.86-2.67 3.39-2.67 2.24 0 3.36 1.3 3.36 2.82 0 1.42-.88 2.26-2.06 2.43 1.14.22 2.35 1.06 2.35 2.79 0 1.87-1.42 3.23-3.68 3.23-2.08 0-3.52-1.14-3.58-3.06l.96-.3c.08 1.87 1.3 2.5 2.64 2.5s2.61-.9 2.61-2.38c0-1.04-.48-1.62-1.17-1.92-.48-.24-.96-.32-2.4-.32h-.82v-.85h.69c.78 0 1.68 0 2.43-.37.59-.27 1.02-.85 1.02-1.71 0-1.07-.82-2-2.35-2s-2.4 1.01-2.46 2.16l-.93-.34Zm18.52 2.96c0-3.17 1.3-5.63 4.07-5.63s4.07 2.47 4.07 5.63c0 2.93-1.1 5.63-4.07 5.63s-4.07-2.71-4.07-5.63m1.09-.03c0 2.46.67 4.79 2.98 4.79s2.96-2.32 2.96-4.79c0-2.66-.96-4.74-2.96-4.74s-2.98 2.08-2.98 4.74m14.44 5.47h-.98v-2.93h-5.01v-.69l5.09-7.33h.9v7.14h1.99v.88h-1.99zm-.98-3.81v-3.62c0-.86.02-1.71.06-2.18h-.02c-.21.43-.71 1.2-1.33 2.11l-2.58 3.68h3.86Zm14.04-1.63c0-3.17 1.3-5.63 4.06-5.63s4.07 2.47 4.07 5.63c0 2.93-1.11 5.63-4.07 5.63s-4.06-2.71-4.06-5.63m1.09-.03c0 2.46.67 4.79 2.98 4.79s2.96-2.32 2.96-4.79c0-2.66-.96-4.74-2.96-4.74s-2.98 2.08-2.98 4.74m10.16-.77c.35-.53 1.2-1.14 2.46-1.14 2 0 3.51 1.39 3.51 3.68 0 2.14-1.3 3.89-3.7 3.89-1.86 0-3.2-.96-3.55-2.67l.9-.51c.16 1.07.97 2.32 2.66 2.32s2.62-1.17 2.62-3.02c0-1.55-.88-2.8-2.58-2.8-1.46 0-2.26.9-2.47 2.13l-.86-.19.35-6.32h5.89v.88h-4.99l-.24 3.76Zm17.34.8c0-3.17 1.3-5.63 4.07-5.63s4.07 2.47 4.07 5.63c0 2.93-1.1 5.63-4.07 5.63s-4.07-2.71-4.07-5.63m1.09-.03c0 2.46.67 4.79 2.98 4.79s2.96-2.32 2.96-4.79c0-2.66-.96-4.74-2.96-4.74s-2.98 2.08-2.98 4.74m15.06-2.74c-.14-.56-.51-2.02-2.27-2.02-1.95 0-2.87 1.79-2.96 4.5.51-.8 1.63-1.46 3.01-1.46 1.84 0 3.44 1.23 3.44 3.55 0 1.98-1.3 3.83-3.6 3.83s-3.91-1.7-3.91-5.59c0-3.57 1.41-5.68 4.07-5.68 2.19 0 3.01 1.55 3.15 2.51l-.93.35Zm-2.38 7.54c1.42 0 2.56-1.1 2.56-2.87 0-1.86-1.22-2.77-2.58-2.77s-2.5.91-2.82 1.73c.11 2.38 1.1 3.91 2.83 3.91Zm14.82-4.77c0-3.17 1.3-5.63 4.07-5.63s4.07 2.47 4.07 5.63c0 2.93-1.1 5.63-4.07 5.63s-4.07-2.71-4.07-5.63m1.09-.03c0 2.46.67 4.79 2.98 4.79s2.96-2.32 2.96-4.79c0-2.66-.96-4.74-2.96-4.74s-2.98 2.08-2.98 4.74m16.29-4.6c-.98 1.5-1.75 2.91-2.35 4.42-.67 1.65-1.14 3.47-1.39 5.65h-1.1c.21-2.06.75-3.97 1.54-5.79.61-1.42 1.34-2.82 2.21-4.21h-5.28v2.48h-.91v-3.36h7.3v.82Zm11.22 4.63c0-3.17 1.3-5.63 4.07-5.63s4.07 2.47 4.07 5.63c0 2.93-1.1 5.63-4.07 5.63s-4.07-2.71-4.07-5.63m1.08-.03c0 2.46.67 4.79 2.98 4.79s2.96-2.32 2.96-4.79c0-2.66-.96-4.74-2.96-4.74s-2.98 2.08-2.98 4.74m15.94-2.81c0 1.26-.86 2.15-1.84 2.45.88.32 2.14 1.09 2.14 2.82 0 1.63-1.15 3.2-3.78 3.2s-3.78-1.57-3.78-3.2c0-1.73 1.25-2.51 2.14-2.83-1.01-.29-1.84-1.17-1.84-2.43 0-1.6 1.23-2.8 3.47-2.8s3.47 1.2 3.47 2.8Zm-.77 5.27c0-1.39-1.02-2.32-2.71-2.32s-2.72.93-2.72 2.32c0 1.26.91 2.34 2.72 2.34s2.71-1.07 2.71-2.34m-.25-5.22c0-1.22-.96-2.02-2.45-2.02s-2.45.8-2.45 2.02c0 1.1.85 2.03 2.45 2.03s2.45-.93 2.45-2.03m12.59 2.79c0-3.17 1.3-5.63 4.07-5.63s4.07 2.47 4.07 5.63c0 2.93-1.1 5.63-4.07 5.63s-4.07-2.71-4.07-5.63m1.08-.03c0 2.46.67 4.79 2.98 4.79s2.96-2.32 2.96-4.79c0-2.66-.96-4.74-2.96-4.74s-2.98 2.08-2.98 4.74m9.88 2.8c.14.56.51 2 2.27 2 1.95 0 2.87-1.78 2.96-4.48-.51.8-1.63 1.46-3.01 1.46-1.84 0-3.44-1.23-3.44-3.55 0-1.98 1.3-3.83 3.6-3.83s3.91 1.7 3.91 5.59c0 3.57-1.41 5.68-4.07 5.68-2.19 0-3.01-1.55-3.15-2.51l.93-.35Zm2.38-7.56c-1.42 0-2.56 1.1-2.56 2.87 0 1.86 1.22 2.77 2.58 2.77s2.5-.91 2.82-1.74c-.11-2.37-1.1-3.89-2.83-3.89Zm19.86 10.23v-8.37c-.5.5-1.49.66-2.32.66-.16 0-.34 0-.51-.02v-.85h.26c.86 0 1.44-.16 1.86-.46.54-.4.8-1.02.83-1.86h.86v10.9zm4.99-5.44c0-3.17 1.3-5.63 4.07-5.63s4.07 2.47 4.07 5.63c0 2.93-1.1 5.63-4.07 5.63s-4.07-2.71-4.07-5.63m1.09-.03c0 2.46.67 4.79 2.98 4.79s2.96-2.32 2.96-4.79c0-2.66-.96-4.74-2.96-4.74s-2.98 2.08-2.98 4.74m22.39 5.47v-8.37c-.5.5-1.49.66-2.32.66-.16 0-.34 0-.51-.02v-.85h.26c.86 0 1.44-.16 1.86-.46.54-.4.8-1.02.83-1.86h.86v10.9zm9.49 0v-8.37c-.5.5-1.49.66-2.32.66-.16 0-.34 0-.51-.02v-.85h.26c.86 0 1.44-.16 1.86-.46.54-.4.8-1.02.83-1.86h.86v10.9zm19.1 0v-8.37c-.5.5-1.49.66-2.32.66-.16 0-.34 0-.51-.02v-.85h.26c.86 0 1.44-.16 1.86-.46.54-.4.8-1.02.83-1.86h.86v10.9zm5.86-6.08c-.27-.58-.37-1.15-.37-1.73 0-1.79 1.33-3.27 3.47-3.27 2.4 0 3.55 1.62 3.55 3.54 0 2.29-1.58 3.7-3.12 4.95-1.01.8-2 1.49-2.38 1.71h5.55v.88h-6.95v-.88c.85-.56 2.38-1.74 3.76-2.9 1.15-1.04 2.1-2.05 2.1-3.73s-1.14-2.72-2.54-2.72c-1.62 0-2.43 1.14-2.43 2.45 0 .86.32 1.6.51 1.87l-1.15-.18Zm22.74 6.08v-8.37c-.5.5-1.49.66-2.32.66-.16 0-.34 0-.51-.02v-.85h.26c.86 0 1.44-.16 1.86-.46.54-.4.8-1.02.83-1.86h.86v10.9zm5.56-8.4c0-.85.86-2.67 3.39-2.67 2.24 0 3.36 1.3 3.36 2.82 0 1.42-.88 2.26-2.06 2.43 1.14.22 2.35 1.06 2.35 2.79 0 1.87-1.42 3.23-3.68 3.23-2.08 0-3.52-1.14-3.58-3.06l.96-.3c.08 1.87 1.3 2.5 2.64 2.5s2.61-.9 2.61-2.38c0-1.04-.48-1.62-1.17-1.92-.48-.24-.96-.32-2.4-.32h-.82v-.85h.69c.78 0 1.68 0 2.43-.37.59-.27 1.02-.85 1.02-1.71 0-1.07-.82-2-2.35-2s-2.4 1.01-2.46 2.16l-.93-.34Zm23.03 8.4v-8.37c-.5.5-1.49.66-2.32.66-.16 0-.34 0-.51-.02v-.85h.26c.86 0 1.44-.16 1.86-.46.54-.4.8-1.02.83-1.86h.86v10.9zm11.02 0h-.98v-2.93h-5.01v-.69l5.09-7.33h.9v7.14h1.99v.88h-1.99zm-.98-3.81v-3.62c0-.86.02-1.71.06-2.18h-.02c-.21.43-.71 1.2-1.33 2.11l-2.58 3.68h3.86Zm18.55 3.81v-8.37c-.5.5-1.49.66-2.32.66-.16 0-.34 0-.51-.02v-.85h.26c.86 0 1.44-.16 1.86-.46.54-.4.8-1.02.83-1.86h.86v10.9zm6.75-6.24c.35-.53 1.2-1.14 2.46-1.14 2 0 3.51 1.39 3.51 3.68 0 2.14-1.3 3.89-3.7 3.89-1.86 0-3.2-.96-3.55-2.67l.9-.51c.16 1.07.98 2.32 2.66 2.32s2.63-1.17 2.63-3.02c0-1.55-.88-2.8-2.58-2.8-1.46 0-2.26.9-2.47 2.13l-.86-.19.35-6.32h5.89v.88h-4.99l-.24 3.76Zm21.84 6.24v-8.37c-.5.5-1.49.66-2.32.66-.16 0-.34 0-.51-.02v-.85h.26c.86 0 1.44-.16 1.86-.46.54-.4.8-1.02.83-1.86h.86v10.9zm11.65-8.21c-.14-.56-.51-2.02-2.27-2.02-1.95 0-2.87 1.79-2.96 4.5.51-.8 1.63-1.46 3.01-1.46 1.84 0 3.44 1.23 3.44 3.55 0 1.98-1.3 3.83-3.6 3.83s-3.91-1.7-3.91-5.59c0-3.57 1.41-5.68 4.07-5.68 2.19 0 3.01 1.55 3.15 2.51l-.93.35Zm-2.39 7.54c1.42 0 2.56-1.1 2.56-2.87 0-1.86-1.22-2.77-2.58-2.77s-2.5.91-2.82 1.73c.11 2.38 1.1 3.91 2.83 3.91Zm19.33.67v-8.37c-.5.5-1.49.66-2.32.66-.16 0-.34 0-.51-.02v-.85h.26c.86 0 1.44-.16 1.86-.46.54-.4.8-1.02.83-1.86h.86v10.9zm12.88-10.07c-.98 1.5-1.75 2.91-2.35 4.42-.67 1.65-1.14 3.47-1.39 5.65h-1.1c.21-2.06.75-3.97 1.54-5.79.61-1.42 1.34-2.82 2.21-4.21h-5.28v2.48h-.91v-3.36h7.3v.82Zm15.71 10.07v-8.37c-.5.5-1.49.66-2.32.66-.16 0-.34 0-.51-.02v-.85h.26c.86 0 1.44-.16 1.86-.46.54-.4.8-1.02.83-1.86h.86v10.9zm12.53-8.28c0 1.26-.86 2.15-1.84 2.45.88.32 2.14 1.09 2.14 2.82 0 1.63-1.15 3.2-3.78 3.2s-3.78-1.57-3.78-3.2c0-1.73 1.25-2.51 2.14-2.83-1.01-.29-1.84-1.17-1.84-2.43 0-1.6 1.23-2.8 3.47-2.8s3.47 1.2 3.47 2.8Zm-.77 5.27c0-1.39-1.02-2.32-2.71-2.32s-2.72.93-2.72 2.32c0 1.26.91 2.34 2.72 2.34s2.71-1.07 2.71-2.34m-.26-5.22c0-1.22-.96-2.02-2.45-2.02s-2.45.8-2.45 2.02c0 1.1.85 2.03 2.45 2.03s2.45-.93 2.45-2.03m17.09 8.23v-8.37c-.5.5-1.49.66-2.32.66-.16 0-.34 0-.51-.02v-.85h.26c.86 0 1.44-.16 1.86-.46.54-.4.8-1.02.83-1.86h.86v10.9zm6.46-2.67c.14.56.51 2 2.27 2 1.95 0 2.87-1.78 2.96-4.48-.51.8-1.63 1.46-3.01 1.46-1.84 0-3.44-1.23-3.44-3.55 0-1.98 1.3-3.83 3.6-3.83s3.91 1.7 3.91 5.59c0 3.57-1.41 5.68-4.07 5.68-2.19 0-3.01-1.55-3.15-2.51l.93-.35Zm2.39-7.56c-1.42 0-2.56 1.1-2.56 2.87 0 1.86 1.22 2.77 2.58 2.77s2.5-.91 2.82-1.74c-.11-2.37-1.1-3.89-2.83-3.89Zm16.1 4.15c-.27-.58-.37-1.15-.37-1.73 0-1.79 1.33-3.27 3.47-3.27 2.4 0 3.55 1.62 3.55 3.54 0 2.29-1.58 3.7-3.12 4.95-1.01.8-2 1.49-2.38 1.71h5.55v.88h-6.95v-.88c.85-.56 2.38-1.74 3.76-2.9 1.15-1.04 2.1-2.05 2.1-3.73s-1.14-2.72-2.54-2.72c-1.62 0-2.43 1.14-2.43 2.45 0 .86.32 1.6.51 1.87l-1.15-.18Zm8.63.64c0-3.17 1.3-5.63 4.07-5.63s4.07 2.47 4.07 5.63c0 2.93-1.1 5.63-4.07 5.63s-4.07-2.71-4.07-5.63m1.09-.03c0 2.46.67 4.79 2.98 4.79s2.96-2.32 2.96-4.79c0-2.66-.96-4.74-2.96-4.74s-2.98 2.08-2.98 4.74m18.88-.61c-.27-.58-.37-1.15-.37-1.73 0-1.79 1.33-3.27 3.47-3.27 2.4 0 3.55 1.62 3.55 3.54 0 2.29-1.58 3.7-3.12 4.95-1.01.8-2 1.49-2.38 1.71h5.55v.88h-6.95v-.88c.85-.56 2.38-1.74 3.76-2.9 1.15-1.04 2.1-2.05 2.1-3.73s-1.14-2.72-2.54-2.72c-1.62 0-2.43 1.14-2.43 2.45 0 .86.32 1.6.51 1.87l-1.15-.18Zm13.12 6.08v-8.37c-.5.5-1.49.66-2.32.66-.16 0-.34 0-.51-.02v-.85h.26c.86 0 1.44-.16 1.86-.46.54-.4.8-1.02.83-1.86h.86v10.9zm15.47-6.08c-.27-.58-.37-1.15-.37-1.73 0-1.79 1.33-3.27 3.47-3.27 2.4 0 3.55 1.62 3.55 3.54 0 2.29-1.58 3.7-3.12 4.95-1.01.8-2 1.49-2.38 1.71h5.55v.88h-6.95v-.88c.85-.56 2.38-1.74 3.76-2.9 1.15-1.04 2.1-2.05 2.1-3.73s-1.14-2.72-2.54-2.72c-1.62 0-2.43 1.14-2.43 2.45 0 .86.32 1.6.51 1.87l-1.15-.18Zm9.48 0c-.27-.58-.37-1.15-.37-1.73 0-1.79 1.33-3.27 3.47-3.27 2.4 0 3.55 1.62 3.55 3.54 0 2.29-1.58 3.7-3.12 4.95-1.01.8-2 1.49-2.38 1.71h5.55v.88h-6.95v-.88c.85-.56 2.38-1.74 3.76-2.9 1.15-1.04 2.1-2.05 2.1-3.73s-1.14-2.72-2.54-2.72c-1.62 0-2.43 1.14-2.43 2.45 0 .86.32 1.6.51 1.87l-1.15-.18Zm19.11 0c-.27-.58-.37-1.15-.37-1.73 0-1.79 1.33-3.27 3.47-3.27 2.4 0 3.55 1.62 3.55 3.54 0 2.29-1.58 3.7-3.12 4.95-1.01.8-2 1.49-2.38 1.71h5.55v.88h-6.95v-.88c.85-.56 2.38-1.74 3.76-2.9 1.15-1.04 2.1-2.05 2.1-3.73s-1.14-2.72-2.54-2.72c-1.62 0-2.43 1.14-2.43 2.45 0 .86.32 1.6.51 1.87l-1.15-.18Zm9.2-2.32c0-.85.86-2.67 3.39-2.67 2.24 0 3.36 1.3 3.36 2.82 0 1.42-.88 2.26-2.06 2.43 1.14.22 2.35 1.06 2.35 2.79 0 1.87-1.42 3.23-3.68 3.23-2.08 0-3.52-1.14-3.58-3.06l.96-.3c.08 1.87 1.3 2.5 2.64 2.5s2.61-.9 2.61-2.38c0-1.04-.48-1.62-1.17-1.92-.48-.24-.96-.32-2.4-.32h-.82v-.85h.69c.78 0 1.68 0 2.43-.37.59-.27 1.02-.85 1.02-1.71 0-1.07-.82-2-2.35-2s-2.4 1.01-2.46 2.16l-.93-.34Zm19.39 2.32c-.27-.58-.37-1.15-.37-1.73 0-1.79 1.33-3.27 3.47-3.27 2.4 0 3.55 1.62 3.55 3.54 0 2.29-1.58 3.7-3.12 4.95-1.01.8-2 1.49-2.38 1.71h5.55v.88h-6.95v-.88c.85-.56 2.38-1.74 3.76-2.9 1.15-1.04 2.1-2.05 2.1-3.73s-1.14-2.72-2.54-2.72c-1.62 0-2.43 1.14-2.43 2.45 0 .86.32 1.6.51 1.87l-1.15-.18Zm14.65 6.08h-.98v-2.93h-5.01v-.69l5.09-7.33h.9v7.14h1.99v.88h-1.99zm-.97-3.81v-3.62c0-.86.02-1.71.06-2.18h-.02c-.21.43-.71 1.2-1.33 2.11l-2.58 3.68h3.86Z"/></svg>